<svg width="425" height="81" viewBox="0 0 425 81" fill="none" xmlns="http://www.w3.org/2000/svg">
<mask id="mask0_242_174" style="mask-type:alpha" maskUnits="userSpaceOnUse" x="0" y="0" width="425" height="81">
<rect width="425" height="81" fill="white"/>
</mask>
<g mask="url(#mask0_242_174)">
<rect y="1.02768" width="80" height="80" rx="8" fill="#3786FA"/>
<path d="M16 64.1555L5.81818 62.4851V61.4907L16 63.1612V64.1555ZM13.1761 68.789L12.1818 68.63V61.0334L13.1761 61.1925V68.789ZM16 67.7351L5.81818 66.0646V65.0703L16 66.7407V67.7351ZM9.63636 68.1925L8.64205 68.0334V60.4368L9.63636 60.5959V68.1925ZM16.1392 55.7013C16.1392 56.3576 16.0265 56.9426 15.8011 57.4563C15.5758 57.9667 15.2625 58.3727 14.8615 58.6743C14.4571 58.9726 13.9882 59.135 13.4545 59.1616V57.9087C13.7827 57.8822 14.0661 57.7695 14.3047 57.5706C14.54 57.3718 14.7223 57.1116 14.8516 56.7901C14.9808 56.4686 15.0455 56.1123 15.0455 55.7212C15.0455 55.2837 14.9692 54.8959 14.8168 54.5579C14.6643 54.2198 14.4522 53.9546 14.1804 53.7624C13.9086 53.5702 13.5938 53.4741 13.2358 53.4741C12.8613 53.4741 12.5315 53.5669 12.2464 53.7525C11.9581 53.9381 11.7327 54.2099 11.5703 54.5678C11.4079 54.9258 11.3267 55.3633 11.3267 55.8803V56.6956H10.233V55.8803C10.233 55.476 10.16 55.1213 10.0142 54.8164C9.86837 54.5081 9.66288 54.2679 9.39773 54.0955C9.13258 53.9198 8.82102 53.832 8.46307 53.832C8.11837 53.832 7.81842 53.9082 7.56321 54.0607C7.308 54.2132 7.10914 54.4286 6.96662 54.707C6.8241 54.9821 6.75284 55.3069 6.75284 55.6814C6.75284 56.0328 6.81747 56.3642 6.94673 56.6758C7.07268 56.984 7.25663 57.2359 7.49858 57.4314C7.73722 57.627 8.02557 57.7331 8.36364 57.7496V58.9428C7.83002 58.9229 7.36269 58.7622 6.96165 58.4606C6.55729 58.159 6.24242 57.7645 6.01705 57.2773C5.79167 56.7868 5.67898 56.2482 5.67898 55.6616C5.67898 55.0318 5.80658 54.4916 6.06179 54.0408C6.31368 53.5901 6.64678 53.2437 7.06108 53.0018C7.47538 52.7598 7.92282 52.6388 8.40341 52.6388C8.9768 52.6388 9.46567 52.7896 9.87003 53.0912C10.2744 53.3895 10.5545 53.7956 10.7102 54.3093H10.7898C10.8958 53.6663 11.1693 53.1642 11.6101 52.8029C12.0476 52.4416 12.5895 52.261 13.2358 52.261C13.7893 52.261 14.2865 52.4118 14.7273 52.7134C15.1648 53.0117 15.5095 53.4194 15.7614 53.9364C16.0133 54.4535 16.1392 55.0418 16.1392 55.7013ZM16 49.9094L6.99148 45.3554H6.91193L6.91193 50.6054H5.81818V44.0827H6.97159L16 48.6168V49.9094ZM16.1392 39.1733C16.1392 39.856 16.0182 40.4593 15.7763 40.9829C15.531 41.5033 15.1946 41.9093 14.767 42.201C14.3362 42.4926 13.8456 42.6368 13.2955 42.6335C12.8646 42.6368 12.4669 42.5523 12.1023 42.38C11.7344 42.2076 11.4278 41.9723 11.1825 41.674C10.9339 41.3724 10.7765 41.036 10.7102 40.6648H10.6506C10.5246 41.152 10.2512 41.5398 9.83026 41.8281C9.40601 42.1165 8.92377 42.259 8.38352 42.2557C7.86648 42.259 7.40412 42.1281 6.99645 41.8629C6.58878 41.5978 6.26728 41.2332 6.03196 40.7692C5.79664 40.3018 5.67898 39.7699 5.67898 39.1733C5.67898 38.5833 5.79664 38.0563 6.03196 37.5923C6.26728 37.1283 6.58878 36.7637 6.99645 36.4986C7.40412 36.2301 7.86648 36.0942 8.38352 36.0909C8.92377 36.0942 9.40601 36.2417 9.83026 36.5334C10.2512 36.8217 10.5246 37.2045 10.6506 37.6818H10.7102C10.7765 37.3139 10.9339 36.9825 11.1825 36.6875C11.4278 36.3925 11.7344 36.1572 12.1023 35.9815C12.4669 35.8059 12.8646 35.7164 13.2955 35.713C13.8456 35.7164 14.3362 35.8655 14.767 36.1605C15.1946 36.4522 15.531 36.8582 15.7763 37.3785C16.0182 37.8956 16.1392 38.4938 16.1392 39.1733ZM15.0455 39.1733C15.0455 38.7126 14.9709 38.3148 14.8217 37.9801C14.6726 37.6453 14.4621 37.3868 14.1903 37.2045C13.9186 37.0222 13.6004 36.9294 13.2358 36.9261C12.8513 36.9294 12.5116 37.0289 12.2166 37.2244C11.9216 37.42 11.6896 37.6868 11.5206 38.0248C11.3516 38.3596 11.267 38.7424 11.267 39.1733C11.267 39.6075 11.3516 39.9952 11.5206 40.3366C11.6896 40.6747 11.9216 40.9415 12.2166 41.1371C12.5116 41.3293 12.8513 41.4237 13.2358 41.4204C13.6004 41.4237 13.9186 41.3359 14.1903 41.1569C14.4621 40.9746 14.6726 40.7145 14.8217 40.3764C14.9709 40.0383 15.0455 39.6373 15.0455 39.1733ZM10.2131 39.1733C10.2131 38.8087 10.1402 38.4855 9.99432 38.2038C9.84848 37.9188 9.64465 37.6951 9.38281 37.5327C9.12098 37.3702 8.81439 37.2874 8.46307 37.2841C8.11837 37.2874 7.81842 37.3686 7.56321 37.5277C7.30469 37.6868 7.10582 37.9072 6.96662 38.1889C6.8241 38.4706 6.75284 38.7987 6.75284 39.1733C6.75284 39.5544 6.8241 39.8875 6.96662 40.1726C7.10582 40.4576 7.30469 40.678 7.56321 40.8338C7.81842 40.9896 8.11837 41.0658 8.46307 41.0625C8.81439 41.0658 9.12098 40.9879 9.38281 40.8288C9.64465 40.6664 9.84848 40.4427 9.99432 40.1577C10.1402 39.8726 10.2131 39.5445 10.2131 39.1733ZM16.1392 30.427C16.1326 30.8446 16.053 31.2622 15.9006 31.6798C15.7481 32.0975 15.4912 32.4786 15.13 32.8233C14.7654 33.168 14.2732 33.4448 13.6534 33.6536C13.0303 33.8624 12.2481 33.9668 11.3068 33.9668C10.4053 33.9668 9.60653 33.8823 8.91051 33.7132C8.21117 33.5442 7.62287 33.2989 7.1456 32.9774C6.66501 32.6559 6.30043 32.2682 6.05185 31.8141C5.80327 31.3567 5.67898 30.8413 5.67898 30.2679C5.67898 29.6978 5.79332 29.1907 6.02202 28.7466C6.2474 28.2992 6.56226 27.9346 6.96662 27.6529C7.37098 27.3711 7.83665 27.1888 8.36364 27.106V28.319C7.90625 28.4317 7.52675 28.6505 7.22514 28.9753C6.92353 29.3001 6.77273 29.731 6.77273 30.2679C6.77273 31.0567 7.11577 31.6782 7.80185 32.1323C8.48793 32.583 9.45076 32.8101 10.6903 32.8134V32.7338C10.4086 32.5482 10.1683 32.3278 9.96946 32.0726C9.76728 31.8141 9.61151 31.529 9.50213 31.2175C9.39276 30.9059 9.33807 30.5762 9.33807 30.2281C9.33807 29.6448 9.4839 29.1112 9.77557 28.6273C10.0639 28.1434 10.4633 27.7556 10.9737 27.4639C11.4808 27.1723 12.0625 27.0264 12.7188 27.0264C13.3485 27.0264 13.9252 27.1673 14.4489 27.449C14.9692 27.7307 15.3835 28.1268 15.6918 28.6372C15.9967 29.1443 16.1458 29.7409 16.1392 30.427ZM15.0455 30.427C15.0455 30.0094 14.9411 29.6349 14.7322 29.3034C14.5234 28.9687 14.2434 28.7052 13.892 28.5129C13.5407 28.3174 13.1496 28.2196 12.7188 28.2196C12.2978 28.2196 11.915 28.3141 11.5703 28.503C11.2223 28.6886 10.9455 28.9455 10.7401 29.2736C10.5346 29.5984 10.4318 29.9696 10.4318 30.3872C10.4318 30.7021 10.4948 30.9954 10.6207 31.2672C10.7434 31.539 10.9124 31.7776 11.1278 31.9831C11.3433 32.1853 11.5902 32.3444 11.8686 32.4604C12.1437 32.5764 12.4337 32.6344 12.7386 32.6344C13.143 32.6344 13.5208 32.5399 13.8722 32.351C14.2235 32.1588 14.5069 31.8969 14.7223 31.5655C14.9377 31.2307 15.0455 30.8512 15.0455 30.427ZM8.36364 21.6509H9.35795V25.7674H8.36364V21.6509ZM16 24.5344H7.30966C6.87216 24.5344 6.50758 24.4317 6.21591 24.2262C5.92424 24.0207 5.70549 23.7539 5.55966 23.4258C5.41383 23.0976 5.34091 22.7513 5.34091 22.3867C5.34091 22.0983 5.36411 21.863 5.41051 21.6807C5.45691 21.4984 5.5 21.3626 5.53977 21.2731L6.55398 21.6111C6.53409 21.6708 6.50923 21.7536 6.4794 21.8597C6.44957 21.9625 6.43466 22.0983 6.43466 22.2674C6.43466 22.6552 6.53243 22.9352 6.72798 23.1076C6.92353 23.2766 7.21023 23.3611 7.58807 23.3611H16V24.5344ZM16.179 17.9781C16.179 18.462 16.0878 18.9012 15.9055 19.2956C15.7199 19.69 15.4531 20.0032 15.1051 20.2352C14.7538 20.4673 14.3295 20.5833 13.8324 20.5833C13.3949 20.5833 13.0402 20.4971 12.7685 20.3247C12.4934 20.1524 12.2779 19.922 12.1222 19.6337C11.9664 19.3453 11.8504 19.0271 11.7741 18.6791C11.6946 18.3278 11.6316 17.9748 11.5852 17.6202C11.5256 17.1562 11.4808 16.78 11.451 16.4916C11.4179 16.2 11.3632 15.9878 11.2869 15.8553C11.2107 15.7194 11.0781 15.6514 10.8892 15.6514H10.8494C10.3589 15.6514 9.97775 15.7857 9.70597 16.0541C9.43419 16.3193 9.2983 16.722 9.2983 17.2622C9.2983 17.8224 9.42093 18.2615 9.66619 18.5797C9.91146 18.8979 10.1733 19.1216 10.4517 19.2509L10.054 20.3645C9.58996 20.1656 9.22869 19.9005 8.97017 19.5691C8.70833 19.2343 8.52604 18.8697 8.4233 18.4753C8.31723 18.0776 8.2642 17.6865 8.2642 17.302C8.2642 17.0567 8.29403 16.775 8.35369 16.4568C8.41004 16.1353 8.5277 15.8254 8.70668 15.5271C8.88565 15.2255 9.15578 14.9753 9.51705 14.7764C9.87831 14.5776 10.3622 14.4781 10.9688 14.4781H16V15.6514H14.9659V15.7111C15.1316 15.7906 15.3089 15.9232 15.4979 16.1088C15.6868 16.2944 15.8475 16.5414 15.9801 16.8496C16.1127 17.1578 16.179 17.534 16.179 17.9781ZM15.125 17.7992C15.125 17.3351 15.0339 16.9441 14.8516 16.6259C14.6693 16.3044 14.4339 16.0624 14.1456 15.9C13.8572 15.7343 13.554 15.6514 13.2358 15.6514H12.1619C12.2216 15.7012 12.2763 15.8105 12.326 15.9796C12.3724 16.1453 12.4138 16.3375 12.4503 16.5563C12.4834 16.7717 12.5133 16.9822 12.5398 17.1877C12.563 17.3898 12.5829 17.5539 12.5994 17.6798C12.6392 17.9848 12.7038 18.2698 12.7933 18.535C12.8795 18.7968 13.0104 19.0089 13.1861 19.1713C13.3584 19.3304 13.5937 19.41 13.892 19.41C14.2997 19.41 14.608 19.2592 14.8168 18.9575C15.0223 18.6526 15.125 18.2665 15.125 17.7992Z" fill="white"/>
<rect x="58" y="1.02768" width="80" height="80" rx="8" fill="#2167EF"/>
<path d="M75 63.1555L64.8182 61.4851V60.4907L75 62.1612V63.1555ZM72.1761 67.789L71.1818 67.63V60.0334L72.1761 60.1925V67.789ZM75 66.7351L64.8182 65.0646V64.0703L75 65.7407V66.7351ZM68.6364 67.1925L67.642 67.0334V59.4368L68.6364 59.5959V67.1925ZM75 58.1417H74.1051L70.4261 54.7809C69.9953 54.3865 69.6207 54.0617 69.3026 53.8064C68.9811 53.5512 68.6795 53.3623 68.3977 53.2397C68.1127 53.1137 67.8144 53.0508 67.5028 53.0508C67.1449 53.0508 66.835 53.1369 66.5732 53.3093C66.3113 53.4783 66.1091 53.7103 65.9666 54.0053C65.8241 54.3003 65.7528 54.6317 65.7528 54.9996C65.7528 55.3907 65.834 55.7321 65.9964 56.0238C66.1555 56.3121 66.3793 56.5358 66.6676 56.6949C66.956 56.8507 67.294 56.9286 67.6818 56.9286V58.1019C67.0852 58.1019 66.5616 57.9644 66.1108 57.6893C65.66 57.4142 65.3087 57.0396 65.0568 56.5657C64.8049 56.0884 64.679 55.5531 64.679 54.9599C64.679 54.3633 64.8049 53.8346 65.0568 53.3739C65.3087 52.9132 65.6484 52.5519 66.076 52.2901C66.5036 52.0283 66.9792 51.8974 67.5028 51.8974C67.8774 51.8974 68.2436 51.9653 68.6016 52.1012C68.9562 52.2338 69.3523 52.4658 69.7898 52.7972C70.224 53.1253 70.7543 53.5811 71.3807 54.1644L73.8267 56.4513H73.9062V51.7184H75V58.1417ZM64.8182 46.0856H75V47.3185H66.1108V47.3782L67.7614 49.864H66.5085L64.8182 47.3185V46.0856ZM75.1392 39.7766C75.1326 40.1942 75.053 40.6118 74.9006 41.0295C74.7481 41.4471 74.4912 41.8282 74.13 42.1729C73.7654 42.5176 73.2732 42.7944 72.6534 43.0032C72.0303 43.212 71.2481 43.3164 70.3068 43.3164C69.4053 43.3164 68.6065 43.2319 67.9105 43.0628C67.2112 42.8938 66.6229 42.6485 66.1456 42.327C65.665 42.0055 65.3004 41.6178 65.0518 41.1637C64.8033 40.7063 64.679 40.1909 64.679 39.6175C64.679 39.0474 64.7933 38.5403 65.022 38.0962C65.2474 37.6488 65.5623 37.2842 65.9666 37.0025C66.371 36.7207 66.8366 36.5385 67.3636 36.4556V37.6687C66.9062 37.7813 66.5268 38.0001 66.2251 38.3249C65.9235 38.6497 65.7727 39.0806 65.7727 39.6175C65.7727 40.4063 66.1158 41.0278 66.8018 41.4819C67.4879 41.9326 68.4508 42.1597 69.6903 42.163V42.0834C69.4086 41.8978 69.1683 41.6774 68.9695 41.4222C68.7673 41.1637 68.6115 40.8786 68.5021 40.5671C68.3928 40.2555 68.3381 39.9258 68.3381 39.5778C68.3381 38.9944 68.4839 38.4608 68.7756 37.9769C69.0639 37.493 69.4633 37.1052 69.9737 36.8135C70.4808 36.5219 71.0625 36.376 71.7188 36.376C72.3485 36.376 72.9252 36.5169 73.4489 36.7986C73.9692 37.0804 74.3835 37.4764 74.6918 37.9868C74.9967 38.4939 75.1458 39.0905 75.1392 39.7766ZM74.0455 39.7766C74.0455 39.359 73.9411 38.9845 73.7322 38.653C73.5234 38.3183 73.2434 38.0548 72.892 37.8626C72.5407 37.667 72.1496 37.5692 71.7188 37.5692C71.2978 37.5692 70.915 37.6637 70.5703 37.8526C70.2223 38.0382 69.9455 38.2951 69.7401 38.6232C69.5346 38.948 69.4318 39.3192 69.4318 39.7368C69.4318 40.0517 69.4948 40.345 69.6207 40.6168C69.7434 40.8886 69.9124 41.1272 70.1278 41.3327C70.3433 41.5349 70.5902 41.694 70.8686 41.81C71.1437 41.926 71.4337 41.984 71.7386 41.984C72.143 41.984 72.5208 41.8895 72.8722 41.7006C73.2235 41.5084 73.5069 41.2465 73.7223 40.9151C73.9377 40.5804 74.0455 40.2009 74.0455 39.7766ZM75 34.1028L65.9915 29.5488H65.9119V34.7988H64.8182V28.2761H65.9716L75 32.8102V34.1028ZM75.1591 23.9123C75.1591 24.6481 74.9967 25.2828 74.6719 25.8164C74.3438 26.3467 73.8864 26.756 73.2997 27.0444C72.7098 27.3294 72.0237 27.4719 71.2415 27.4719C70.4593 27.4719 69.7699 27.3294 69.1733 27.0444C68.5734 26.756 68.1061 26.355 67.7713 25.8412C67.4332 25.3242 67.2642 24.721 67.2642 24.0316C67.2642 23.6339 67.3305 23.2411 67.4631 22.8533C67.5956 22.4655 67.8111 22.1126 68.1094 21.7944C68.4044 21.4762 68.7955 21.2226 69.2827 21.0337C69.7699 20.8448 70.3698 20.7503 71.0824 20.7503H71.5795V26.6367H70.5653V21.9435C70.1345 21.9435 69.75 22.0297 69.4119 22.202C69.0739 22.3711 68.8071 22.613 68.6115 22.9279C68.416 23.2394 68.3182 23.6073 68.3182 24.0316C68.3182 24.4989 68.4342 24.9033 68.6662 25.2447C68.8949 25.5827 69.1932 25.8429 69.5611 26.0252C69.929 26.2075 70.3234 26.2986 70.7443 26.2986H71.4205C71.9972 26.2986 72.486 26.1992 72.8871 26.0003C73.2848 25.7982 73.5881 25.5181 73.7969 25.1601C74.0024 24.8022 74.1051 24.3862 74.1051 23.9123C74.1051 23.604 74.062 23.3256 73.9759 23.077C73.8864 22.8251 73.7538 22.6081 73.5781 22.4258C73.3991 22.2435 73.1771 22.1026 72.9119 22.0032L73.2301 20.8697C73.6146 20.989 73.9527 21.1895 74.2443 21.4712C74.5327 21.7529 74.758 22.101 74.9205 22.5153C75.0795 22.9295 75.1591 23.3952 75.1591 23.9123ZM67.3636 15.565H68.358V19.6814H67.3636V15.565ZM75 18.4485H66.3097C65.8722 18.4485 65.5076 18.3457 65.2159 18.1403C64.9242 17.9348 64.7055 17.6679 64.5597 17.3398C64.4138 17.0117 64.3409 16.6653 64.3409 16.3008C64.3409 16.0124 64.3641 15.7771 64.4105 15.5948C64.4569 15.4125 64.5 15.2766 64.5398 15.1871L65.554 15.5252C65.5341 15.5849 65.5092 15.6677 65.4794 15.7738C65.4496 15.8765 65.4347 16.0124 65.4347 16.1814C65.4347 16.5692 65.5324 16.8493 65.728 17.0216C65.9235 17.1907 66.2102 17.2752 66.5881 17.2752H75V18.4485Z" fill="white"/>
<rect x="116" y="1.02768" width="80" height="80" rx="8" fill="#1951DC"/>
<path d="M135 64.1555L124.818 62.4851V61.4907L135 63.1612V64.1555ZM132.176 68.789L131.182 68.63V61.0334L132.176 61.1925V68.789ZM135 67.7351L124.818 66.0646V65.0703L135 66.7407V67.7351ZM128.636 68.1925L127.642 68.0334V60.4368L128.636 60.5959V68.1925ZM124.818 55.5621H135V56.7951H126.111V56.8547L127.761 59.3405H126.509L124.818 56.7951V55.5621ZM124.679 49.3924C124.682 48.9748 124.762 48.5572 124.918 48.1395C125.073 47.7219 125.332 47.3408 125.693 46.9961C126.051 46.6514 126.54 46.3746 127.16 46.1658C127.78 45.957 128.557 45.8526 129.491 45.8526C130.396 45.8526 131.2 45.9388 131.903 46.1111C132.602 46.2802 133.192 46.5254 133.673 46.8469C134.153 47.1651 134.518 47.5529 134.766 48.0103C135.015 48.4644 135.139 48.9781 135.139 49.5515C135.139 50.1215 135.027 50.6303 134.801 51.0778C134.572 51.5219 134.256 51.8865 133.852 52.1715C133.444 52.4532 132.972 52.6339 132.435 52.7134V51.5003C132.902 51.391 133.288 51.1739 133.593 50.8491C133.895 50.5209 134.045 50.0884 134.045 49.5515C134.045 48.766 133.702 48.1462 133.016 47.6921C132.33 47.2347 131.361 47.006 130.108 47.006V47.0856C130.386 47.2712 130.627 47.4916 130.829 47.7468C131.031 48.002 131.187 48.2854 131.296 48.5969C131.406 48.9085 131.46 49.2399 131.46 49.5912C131.46 50.1746 131.316 50.7099 131.028 51.1971C130.736 51.681 130.337 52.0688 129.83 52.3604C129.319 52.6488 128.736 52.7929 128.08 52.7929C127.456 52.7929 126.886 52.6537 126.369 52.3753C125.849 52.0936 125.435 51.6992 125.126 51.1921C124.818 50.6817 124.669 50.0818 124.679 49.3924ZM125.773 49.3924C125.773 49.81 125.877 50.1862 126.086 50.5209C126.291 50.8524 126.57 51.1159 126.921 51.3114C127.269 51.5036 127.655 51.5998 128.08 51.5998C128.504 51.5998 128.89 51.507 129.238 51.3214C129.583 51.1324 129.858 50.8756 130.063 50.5508C130.265 50.2226 130.366 49.8498 130.366 49.4322C130.366 49.1173 130.305 48.824 130.183 48.5522C130.057 48.2804 129.886 48.0434 129.67 47.8412C129.452 47.6358 129.205 47.475 128.93 47.359C128.651 47.243 128.361 47.185 128.06 47.185C127.662 47.185 127.289 47.2811 126.941 47.4733C126.593 47.6623 126.311 47.9241 126.096 48.2589C125.88 48.5903 125.773 48.9681 125.773 49.3924ZM135.139 40.7157C135.139 41.299 135.023 41.8244 134.791 42.2917C134.559 42.759 134.241 43.1336 133.837 43.4153C133.432 43.697 132.972 43.8511 132.455 43.8776V42.6845C132.915 42.6381 133.296 42.4293 133.598 42.058C133.896 41.6835 134.045 41.2361 134.045 40.7157C134.045 40.2981 133.948 39.9269 133.752 39.6021C133.557 39.274 133.288 39.0171 132.947 38.8315C132.602 38.6426 132.213 38.5481 131.778 38.5481C131.334 38.5481 130.938 38.6459 130.59 38.8414C130.239 39.0337 129.962 39.2988 129.76 39.6369C129.558 39.9749 129.455 40.3611 129.452 40.7953C129.448 41.1068 129.496 41.4266 129.596 41.7548C129.692 42.0829 129.816 42.353 129.969 42.5651L129.83 43.7186L124.818 43.1021V37.8123H125.912V42.068L128.915 42.4259V42.3663C128.749 42.1575 128.612 41.8956 128.502 41.5808C128.393 41.2659 128.338 40.9378 128.338 40.5964C128.338 39.9733 128.487 39.4181 128.786 38.9309C129.08 38.4404 129.485 38.0559 129.999 37.7775C130.512 37.4958 131.099 37.3549 131.759 37.3549C132.408 37.3549 132.988 37.5008 133.499 37.7924C134.006 38.0808 134.407 38.4785 134.702 38.9856C134.993 39.4927 135.139 40.0694 135.139 40.7157ZM124.818 31.8004H135V33.0334H126.111V33.093L127.761 35.5788H126.509L124.818 33.0334V31.8004ZM135.159 25.9687C135.159 26.6051 134.998 27.1669 134.677 27.6541C134.352 28.1413 133.895 28.5225 133.305 28.7976C132.711 29.0727 132.01 29.2102 131.202 29.2102C130.4 29.2102 129.704 29.0727 129.114 28.7976C128.524 28.5225 128.068 28.1397 127.746 27.6491C127.425 27.1586 127.264 26.5918 127.264 25.9488C127.264 25.4517 127.347 25.0589 127.513 24.7706C127.675 24.4789 127.861 24.2568 128.07 24.1044C128.275 23.9486 128.444 23.8276 128.577 23.7415V23.642H124.818V22.4687H135V23.6023H133.827V23.7415C133.966 23.8276 134.142 23.9503 134.354 24.1094C134.562 24.2684 134.75 24.4955 134.915 24.7905C135.078 25.0854 135.159 25.4782 135.159 25.9687ZM134.105 25.8096C134.105 25.339 133.982 24.9413 133.737 24.6165C133.489 24.2916 133.146 24.0447 132.708 23.8757C132.267 23.7067 131.759 23.6221 131.182 23.6221C130.612 23.6221 130.113 23.705 129.685 23.8707C129.254 24.0364 128.92 24.2817 128.681 24.6065C128.439 24.9313 128.318 25.3324 128.318 25.8096C128.318 26.3068 128.446 26.7211 128.701 27.0525C128.953 27.3807 129.296 27.6276 129.73 27.7933C130.161 27.9557 130.645 28.0369 131.182 28.0369C131.725 28.0369 132.219 27.9541 132.663 27.7883C133.104 27.6193 133.455 27.3707 133.717 27.0426C133.976 26.7112 134.105 26.3002 134.105 25.8096ZM135.159 17.0547C135.159 17.7706 134.99 18.3871 134.652 18.9041C134.314 19.4211 133.848 19.8189 133.255 20.0973C132.662 20.3757 131.984 20.5149 131.222 20.5149C130.446 20.5149 129.762 20.3724 129.168 20.0873C128.572 19.799 128.106 19.3979 127.771 18.8842C127.433 18.3672 127.264 17.7639 127.264 17.0746C127.264 16.5376 127.364 16.0537 127.562 15.6228C127.761 15.192 128.04 14.839 128.398 14.5639C128.756 14.2888 129.173 14.1181 129.651 14.0518V15.2251C129.303 15.3146 128.994 15.5135 128.726 15.8217C128.454 16.1266 128.318 16.5376 128.318 17.0547C128.318 17.5121 128.437 17.9131 128.676 18.2578C128.911 18.5992 129.245 18.866 129.675 19.0582C130.103 19.2471 130.605 19.3416 131.182 19.3416C131.772 19.3416 132.286 19.2488 132.723 19.0632C133.161 18.8743 133.5 18.6091 133.742 18.2677C133.984 17.923 134.105 17.5187 134.105 17.0547C134.105 16.7497 134.052 16.473 133.946 16.2244C133.84 15.9758 133.688 15.7654 133.489 15.593C133.29 15.4207 133.051 15.298 132.773 15.2251V14.0518C133.223 14.1181 133.629 14.2822 133.991 14.544C134.349 14.8025 134.634 15.1456 134.846 15.5731C135.055 15.9974 135.159 16.4912 135.159 17.0547Z" fill="white"/>
<rect x="171" y="1.02768" width="80" height="80" rx="8" fill="#4F4F4F"/>
<path d="M191 61.1555L180.818 59.4851V58.4907L191 60.1612V61.1555ZM188.176 65.789L187.182 65.63V58.0334L188.176 58.1925V65.789ZM191 64.7351L180.818 63.0646V62.0703L191 63.7407V64.7351ZM184.636 65.1925L183.642 65.0334V57.4368L184.636 57.5959V65.1925ZM188.912 56.3803H187.898L180.818 51.9059V51.1701H182.389V51.6672L187.739 55.0479H187.818V49.0224H188.912V56.3803ZM191 51.5877H188.604H188.131H180.818V50.4144H191V51.5877ZM183.364 43.7388H184.358V47.8553H183.364V43.7388ZM191 46.6223H182.31C181.872 46.6223 181.508 46.5196 181.216 46.3141C180.924 46.1086 180.705 45.8418 180.56 45.5137C180.414 45.1855 180.341 44.8392 180.341 44.4746C180.341 44.1862 180.364 43.9509 180.411 43.7686C180.457 43.5863 180.5 43.4504 180.54 43.361L181.554 43.699C181.534 43.7587 181.509 43.8415 181.479 43.9476C181.45 44.0503 181.435 44.1862 181.435 44.3553C181.435 44.7431 181.532 45.0231 181.728 45.1955C181.924 45.3645 182.21 45.449 182.588 45.449H191V46.6223ZM188.912 43.228H187.898L180.818 38.7535V38.0177H182.389V38.5149L187.739 41.8956H187.818V35.87H188.912V43.228ZM191 38.4353H188.604H188.131H180.818V37.2621H191V38.4353ZM183.364 30.5865H184.358V34.7029H183.364V30.5865ZM191 33.47H182.31C181.872 33.47 181.508 33.3672 181.216 33.1617C180.924 32.9562 180.705 32.6894 180.56 32.3613C180.414 32.0332 180.341 31.6868 180.341 31.3222C180.341 31.0339 180.364 30.7986 180.411 30.6163C180.457 30.434 180.5 30.2981 180.54 30.2086L181.554 30.5467C181.534 30.6063 181.509 30.6892 181.479 30.7953C181.45 30.898 181.435 31.0339 181.435 31.2029C181.435 31.5907 181.532 31.8708 181.728 32.0431C181.924 32.2122 182.21 32.2967 182.588 32.2967H191V33.47ZM188.912 30.0756H187.898L180.818 25.6012V24.8654H182.389V25.3626L187.739 28.7432H187.818V22.7177H188.912V30.0756ZM191 25.283H188.604H188.131H180.818V24.1097H191V25.283ZM183.364 17.4341H184.358V21.5506H183.364V17.4341ZM191 20.3176H182.31C181.872 20.3176 181.508 20.2149 181.216 20.0094C180.924 19.8039 180.705 19.5371 180.56 19.209C180.414 18.8808 180.341 18.5345 180.341 18.1699C180.341 17.8816 180.364 17.6462 180.411 17.4639C180.457 17.2816 180.5 17.1458 180.54 17.0563L181.554 17.3943C181.534 17.454 181.509 17.5369 181.479 17.6429C181.45 17.7457 181.435 17.8815 181.435 18.0506C181.435 18.4384 181.532 18.7184 181.728 18.8908C181.924 19.0598 182.21 19.1443 182.588 19.1443H191V20.3176Z" fill="white"/>
<rect x="229" y="1.02768" width="80" height="80" rx="8" fill="#454545"/>
<path d="M251 67.1555L240.818 65.4851V64.4907L251 66.1612V67.1555ZM248.176 71.789L247.182 71.63V64.0334L248.176 64.1925V71.789ZM251 70.7351L240.818 69.0646V68.0703L251 69.7407V70.7351ZM244.636 71.1925L243.642 71.0334V63.4368L244.636 63.5959V71.1925ZM248.912 62.3803H247.898L240.818 57.9059V57.1701H242.389V57.6672L247.739 61.0479H247.818V55.0224H248.912V62.3803ZM251 57.5877H248.604H248.131H240.818V56.4144H251V57.5877ZM251.139 49.9774C251.139 50.5608 251.023 51.0861 250.791 51.5534C250.559 52.0208 250.241 52.3953 249.837 52.677C249.432 52.9587 248.972 53.1128 248.455 53.1394V51.9462C248.915 51.8998 249.296 51.691 249.598 51.3198C249.896 50.9452 250.045 50.4978 250.045 49.9774C250.045 49.5598 249.948 49.1886 249.752 48.8638C249.557 48.5357 249.288 48.2788 248.947 48.0932C248.602 47.9043 248.213 47.8098 247.778 47.8098C247.334 47.8098 246.938 47.9076 246.59 48.1031C246.239 48.2954 245.962 48.5605 245.76 48.8986C245.558 49.2367 245.455 49.6228 245.452 50.057C245.448 50.3685 245.496 50.6884 245.596 51.0165C245.692 51.3446 245.816 51.6147 245.969 51.8269L245.83 52.9803L240.818 52.3638V47.074H241.912V51.3297L244.915 51.6877V51.628C244.749 51.4192 244.612 51.1574 244.502 50.8425C244.393 50.5276 244.338 50.1995 244.338 49.8581C244.338 49.235 244.487 48.6798 244.786 48.1926C245.08 47.7021 245.485 47.3176 245.999 47.0392C246.512 46.7575 247.099 46.6166 247.759 46.6166C248.408 46.6166 248.988 46.7625 249.499 47.0541C250.006 47.3425 250.407 47.7402 250.702 48.2473C250.993 48.7544 251.139 49.3311 251.139 49.9774ZM248.912 44.8803H247.898L240.818 40.4059V39.6701H242.389V40.1672L247.739 43.5479H247.818V37.5224H248.912V44.8803ZM251 40.0877H248.604H248.131H240.818V38.9144H251V40.0877ZM251.139 32.4774C251.139 33.0608 251.023 33.5861 250.791 34.0534C250.559 34.5208 250.241 34.8953 249.837 35.177C249.432 35.4587 248.972 35.6128 248.455 35.6394V34.4462C248.915 34.3998 249.296 34.191 249.598 33.8198C249.896 33.4452 250.045 32.9978 250.045 32.4774C250.045 32.0598 249.948 31.6886 249.752 31.3638C249.557 31.0357 249.288 30.7788 248.947 30.5932C248.602 30.4043 248.213 30.3098 247.778 30.3098C247.334 30.3098 246.938 30.4076 246.59 30.6031C246.239 30.7954 245.962 31.0605 245.76 31.3986C245.558 31.7367 245.455 32.1228 245.452 32.557C245.448 32.8685 245.496 33.1884 245.596 33.5165C245.692 33.8446 245.816 34.1147 245.969 34.3269L245.83 35.4803L240.818 34.8638V29.574H241.912V33.8297L244.915 34.1877V34.128C244.749 33.9192 244.612 33.6574 244.502 33.3425C244.393 33.0276 244.338 32.6995 244.338 32.3581C244.338 31.735 244.487 31.1798 244.786 30.6926C245.08 30.2021 245.485 29.8176 245.999 29.5392C246.512 29.2575 247.099 29.1166 247.759 29.1166C248.408 29.1166 248.988 29.2625 249.499 29.5541C250.006 29.8425 250.407 30.2402 250.702 30.7473C250.993 31.2544 251.139 31.8311 251.139 32.4774ZM248.912 27.3803H247.898L240.818 22.9059V22.1701H242.389V22.6672L247.739 26.0479H247.818V20.0224H248.912V27.3803ZM251 22.5877H248.604H248.131H240.818V21.4144H251V22.5877ZM251.139 14.9774C251.139 15.5608 251.023 16.0861 250.791 16.5534C250.559 17.0208 250.241 17.3953 249.837 17.677C249.432 17.9587 248.972 18.1128 248.455 18.1394V16.9462C248.915 16.8998 249.296 16.691 249.598 16.3198C249.896 15.9452 250.045 15.4978 250.045 14.9774C250.045 14.5598 249.948 14.1886 249.752 13.8638C249.557 13.5357 249.288 13.2788 248.947 13.0932C248.602 12.9043 248.213 12.8098 247.778 12.8098C247.334 12.8098 246.938 12.9076 246.59 13.1031C246.239 13.2954 245.962 13.5605 245.76 13.8986C245.558 14.2367 245.455 14.6228 245.452 15.057C245.448 15.3685 245.496 15.6884 245.596 16.0165C245.692 16.3446 245.816 16.6147 245.969 16.8269L245.83 17.9803L240.818 17.3638V12.074H241.912V16.3297L244.915 16.6877V16.628C244.749 16.4192 244.612 16.1574 244.502 15.8425C244.393 15.5276 244.338 15.1995 244.338 14.8581C244.338 14.235 244.487 13.6798 244.786 13.1926C245.08 12.7021 245.485 12.3176 245.999 12.0392C246.512 11.7575 247.099 11.6166 247.759 11.6166C248.408 11.6166 248.988 11.7625 249.499 12.0541C250.006 12.3425 250.407 12.7402 250.702 13.2473C250.993 13.7544 251.139 14.3311 251.139 14.9774Z" fill="white"/>
<rect x="287" y="1.02768" width="80" height="80" rx="8" fill="#3D3D3D"/>
<path d="M310 67.1555L299.818 65.4851V64.4907L310 66.1612V67.1555ZM307.176 71.789L306.182 71.63V64.0334L307.176 64.1925V71.789ZM310 70.7351L299.818 69.0646V68.0703L310 69.7407V70.7351ZM303.636 71.1925L302.642 71.0334V63.4368L303.636 63.5959V71.1925ZM310.139 58.7013C310.139 59.3576 310.027 59.9426 309.801 60.4563C309.576 60.9667 309.263 61.3727 308.862 61.6743C308.457 61.9726 307.988 62.135 307.455 62.1616V60.9087C307.783 60.8822 308.066 60.7695 308.305 60.5706C308.54 60.3718 308.722 60.1116 308.852 59.7901C308.981 59.4686 309.045 59.1123 309.045 58.7212C309.045 58.2837 308.969 57.8959 308.817 57.5579C308.664 57.2198 308.452 56.9546 308.18 56.7624C307.909 56.5702 307.594 56.4741 307.236 56.4741C306.861 56.4741 306.531 56.5669 306.246 56.7525C305.958 56.9381 305.733 57.2099 305.57 57.5678C305.408 57.9258 305.327 58.3633 305.327 58.8803V59.6956H304.233V58.8803C304.233 58.476 304.16 58.1213 304.014 57.8164C303.868 57.5081 303.663 57.2679 303.398 57.0955C303.133 56.9198 302.821 56.832 302.463 56.832C302.118 56.832 301.818 56.9082 301.563 57.0607C301.308 57.2132 301.109 57.4286 300.967 57.707C300.824 57.9821 300.753 58.3069 300.753 58.6814C300.753 59.0328 300.817 59.3642 300.947 59.6758C301.073 59.984 301.257 60.2359 301.499 60.4314C301.737 60.627 302.026 60.7331 302.364 60.7496V61.9428C301.83 61.9229 301.363 61.7622 300.962 61.4606C300.557 61.159 300.242 60.7645 300.017 60.2773C299.792 59.7868 299.679 59.2482 299.679 58.6616C299.679 58.0318 299.807 57.4916 300.062 57.0408C300.314 56.5901 300.647 56.2437 301.061 56.0018C301.475 55.7598 301.923 55.6388 302.403 55.6388C302.977 55.6388 303.466 55.7896 303.87 56.0912C304.274 56.3895 304.554 56.7956 304.71 57.3093H304.79C304.896 56.6663 305.169 56.1642 305.61 55.8029C306.048 55.4416 306.589 55.261 307.236 55.261C307.789 55.261 308.286 55.4118 308.727 55.7134C309.165 56.0117 309.509 56.4194 309.761 56.9364C310.013 57.4535 310.139 58.0418 310.139 58.7013ZM310.159 50.3242C310.159 50.9606 309.998 51.5224 309.677 52.0096C309.352 52.4968 308.895 52.8779 308.305 53.153C307.711 53.4281 307.01 53.5657 306.202 53.5657C305.4 53.5657 304.704 53.4281 304.114 53.153C303.524 52.8779 303.068 52.4951 302.746 52.0046C302.425 51.5141 302.264 50.9473 302.264 50.3043C302.264 49.8072 302.347 49.4144 302.513 49.126C302.675 48.8344 302.861 48.6123 303.07 48.4599C303.275 48.3041 303.444 48.1831 303.577 48.0969V47.9975H299.818V46.8242H310V47.9577H308.827V48.0969C308.966 48.1831 309.142 48.3057 309.354 48.4648C309.562 48.6239 309.75 48.851 309.915 49.1459C310.078 49.4409 310.159 49.8337 310.159 50.3242ZM309.105 50.1651C309.105 49.6945 308.982 49.2967 308.737 48.9719C308.489 48.6471 308.146 48.4002 307.708 48.2312C307.267 48.0621 306.759 47.9776 306.182 47.9776C305.612 47.9776 305.113 48.0605 304.685 48.2262C304.254 48.3919 303.92 48.6372 303.681 48.962C303.439 49.2868 303.318 49.6878 303.318 50.1651C303.318 50.6623 303.446 51.0766 303.701 51.408C303.953 51.7361 304.296 51.9831 304.73 52.1488C305.161 52.3112 305.645 52.3924 306.182 52.3924C306.725 52.3924 307.219 52.3095 307.663 52.1438C308.104 51.9748 308.455 51.7262 308.717 51.3981C308.976 51.0666 309.105 50.6556 309.105 50.1651ZM310.139 41.092C310.139 41.7482 310.027 42.3332 309.801 42.8469C309.576 43.3573 309.263 43.7634 308.862 44.065C308.457 44.3633 307.988 44.5257 307.455 44.5522V43.2993C307.783 43.2728 308.066 43.1601 308.305 42.9613C308.54 42.7624 308.722 42.5022 308.852 42.1807C308.981 41.8592 309.045 41.5029 309.045 41.1118C309.045 40.6743 308.969 40.2866 308.817 39.9485C308.664 39.6104 308.452 39.3453 308.18 39.153C307.909 38.9608 307.594 38.8647 307.236 38.8647C306.861 38.8647 306.531 38.9575 306.246 39.1431C305.958 39.3287 305.733 39.6005 305.57 39.9584C305.408 40.3164 305.327 40.7539 305.327 41.2709V42.0863H304.233V41.2709C304.233 40.8666 304.16 40.5119 304.014 40.207C303.868 39.8988 303.663 39.6585 303.398 39.4861C303.133 39.3105 302.821 39.2226 302.463 39.2226C302.118 39.2226 301.818 39.2989 301.563 39.4513C301.308 39.6038 301.109 39.8192 300.967 40.0976C300.824 40.3727 300.753 40.6975 300.753 41.0721C300.753 41.4234 300.817 41.7548 300.947 42.0664C301.073 42.3746 301.257 42.6265 301.499 42.8221C301.737 43.0176 302.026 43.1237 302.364 43.1403V44.3334C301.83 44.3135 301.363 44.1528 300.962 43.8512C300.557 43.5496 300.242 43.1552 300.017 42.6679C299.792 42.1774 299.679 41.6388 299.679 41.0522C299.679 40.4224 299.807 39.8822 300.062 39.4314C300.314 38.9807 300.647 38.6343 301.061 38.3924C301.475 38.1504 301.923 38.0295 302.403 38.0295C302.977 38.0295 303.466 38.1803 303.87 38.4819C304.274 38.7802 304.554 39.1862 304.71 39.6999H304.79C304.896 39.0569 305.169 38.5548 305.61 38.1935C306.048 37.8322 306.589 37.6516 307.236 37.6516C307.789 37.6516 308.286 37.8024 308.727 38.104C309.165 38.4023 309.509 38.81 309.761 39.327C310.013 39.8441 310.139 40.4324 310.139 41.092ZM310.159 32.7148C310.159 33.3512 309.998 33.913 309.677 34.4002C309.352 34.8874 308.895 35.2686 308.305 35.5437C307.711 35.8188 307.01 35.9563 306.202 35.9563C305.4 35.9563 304.704 35.8188 304.114 35.5437C303.524 35.2686 303.068 34.8858 302.746 34.3952C302.425 33.9047 302.264 33.3379 302.264 32.6949C302.264 32.1978 302.347 31.805 302.513 31.5167C302.675 31.225 302.861 31.0029 303.07 30.8505C303.275 30.6947 303.444 30.5737 303.577 30.4876V30.3881H299.818V29.2148H310V30.3483H308.827V30.4876C308.966 30.5737 309.142 30.6964 309.354 30.8554C309.562 31.0145 309.75 31.2416 309.915 31.5366C310.078 31.8315 310.159 32.2243 310.159 32.7148ZM309.105 32.5557C309.105 32.0851 308.982 31.6874 308.737 31.3626C308.489 31.0377 308.146 30.7908 307.708 30.6218C307.267 30.4528 306.759 30.3682 306.182 30.3682C305.612 30.3682 305.113 30.4511 304.685 30.6168C304.254 30.7825 303.92 31.0278 303.681 31.3526C303.439 31.6774 303.318 32.0785 303.318 32.5557C303.318 33.0529 303.446 33.4672 303.701 33.7986C303.953 34.1268 304.296 34.3737 304.73 34.5394C305.161 34.7018 305.645 34.783 306.182 34.783C306.725 34.783 307.219 34.7001 307.663 34.5344C308.104 34.3654 308.455 34.1168 308.717 33.7887C308.976 33.4572 309.105 33.0463 309.105 32.5557ZM310.139 23.4826C310.139 24.1388 310.027 24.7238 309.801 25.2376C309.576 25.748 309.263 26.154 308.862 26.4556C308.457 26.7539 307.988 26.9163 307.455 26.9428V25.69C307.783 25.6635 308.066 25.5508 308.305 25.3519C308.54 25.153 308.722 24.8929 308.852 24.5714C308.981 24.2499 309.045 23.8936 309.045 23.5025C309.045 23.065 308.969 22.6772 308.817 22.3391C308.664 22.001 308.452 21.7359 308.18 21.5437C307.909 21.3514 307.594 21.2553 307.236 21.2553C306.861 21.2553 306.531 21.3481 306.246 21.5337C305.958 21.7193 305.733 21.9911 305.57 22.3491C305.408 22.707 305.327 23.1445 305.327 23.6616V24.4769H304.233V23.6616C304.233 23.2572 304.16 22.9026 304.014 22.5976C303.868 22.2894 303.663 22.0491 303.398 21.8768C303.133 21.7011 302.821 21.6133 302.463 21.6133C302.118 21.6133 301.818 21.6895 301.563 21.842C301.308 21.9944 301.109 22.2099 300.967 22.4883C300.824 22.7634 300.753 23.0882 300.753 23.4627C300.753 23.814 300.817 24.1455 300.947 24.457C301.073 24.7653 301.257 25.0171 301.499 25.2127C301.737 25.4082 302.026 25.5143 302.364 25.5309V26.7241C301.83 26.7042 301.363 26.5434 300.962 26.2418C300.557 25.9402 300.242 25.5458 300.017 25.0586C299.792 24.568 299.679 24.0295 299.679 23.4428C299.679 22.8131 299.807 22.2728 300.062 21.8221C300.314 21.3713 300.647 21.025 301.061 20.783C301.475 20.5411 301.923 20.4201 302.403 20.4201C302.977 20.4201 303.466 20.5709 303.87 20.8725C304.274 21.1708 304.554 21.5768 304.71 22.0905H304.79C304.896 21.4475 305.169 20.9454 305.61 20.5841C306.048 20.2229 306.589 20.0422 307.236 20.0422C307.789 20.0422 308.286 20.193 308.727 20.4947C309.165 20.7929 309.509 21.2006 309.761 21.7177C310.013 22.2347 310.139 22.823 310.139 23.4826ZM310.159 15.1054C310.159 15.7418 309.998 16.3036 309.677 16.7908C309.352 17.278 308.895 17.6592 308.305 17.9343C307.711 18.2094 307.01 18.3469 306.202 18.3469C305.4 18.3469 304.704 18.2094 304.114 17.9343C303.524 17.6592 303.068 17.2764 302.746 16.7858C302.425 16.2953 302.264 15.7286 302.264 15.0856C302.264 14.5884 302.347 14.1956 302.513 13.9073C302.675 13.6156 302.861 13.3936 303.07 13.2411C303.275 13.0853 303.444 12.9644 303.577 12.8782V12.7787H299.818V11.6054H310V12.739H308.827V12.8782C308.966 12.9644 309.142 13.087 309.354 13.2461C309.562 13.4052 309.75 13.6322 309.915 13.9272C310.078 14.2222 310.159 14.6149 310.159 15.1054ZM309.105 14.9464C309.105 14.4757 308.982 14.078 308.737 13.7532C308.489 13.4284 308.146 13.1814 307.708 13.0124C307.267 12.8434 306.759 12.7589 306.182 12.7589C305.612 12.7589 305.113 12.8417 304.685 13.0074C304.254 13.1732 303.92 13.4184 303.681 13.7432C303.439 14.068 303.318 14.4691 303.318 14.9464C303.318 15.4435 303.446 15.8578 303.701 16.1893C303.953 16.5174 304.296 16.7643 304.73 16.93C305.161 17.0924 305.645 17.1736 306.182 17.1736C306.725 17.1736 307.219 17.0908 307.663 16.9251C308.104 16.756 308.455 16.5074 308.717 16.1793C308.976 15.8479 309.105 15.4369 309.105 14.9464Z" fill="white"/>
<rect x="345" y="1.02768" width="80" height="80" rx="8" fill="black"/>
<path d="M368 67.1555L357.818 65.4851V64.4907L368 66.1612V67.1555ZM365.176 71.789L364.182 71.63V64.0334L365.176 64.1925V71.789ZM368 70.7351L357.818 69.0646V68.0703L368 69.7407V70.7351ZM361.636 71.1925L360.642 71.0334V63.4368L361.636 63.5959V71.1925ZM368.139 58.8206C368.139 59.5697 367.935 60.2077 367.528 60.7347C367.117 61.2617 366.522 61.6644 365.743 61.9428C364.961 62.2212 364.016 62.3604 362.909 62.3604C361.809 62.3604 360.869 62.2212 360.09 61.9428C359.308 61.6611 358.711 61.2567 358.3 60.7297C357.886 60.1994 357.679 59.5631 357.679 58.8206C357.679 58.0782 357.886 57.4435 358.3 56.9165C358.711 56.3862 359.308 55.9819 360.09 55.7035C360.869 55.4217 361.809 55.2809 362.909 55.2809C364.016 55.2809 364.961 55.4201 365.743 55.6985C366.522 55.9769 367.117 56.3796 367.528 56.9066C367.935 57.4336 368.139 58.0716 368.139 58.8206ZM367.045 58.8206C367.045 58.0782 366.687 57.5015 365.972 57.0905C365.256 56.6795 364.235 56.4741 362.909 56.4741C362.027 56.4741 361.277 56.5685 360.657 56.7574C360.037 56.943 359.565 57.2115 359.24 57.5628C358.915 57.9108 358.753 58.3301 358.753 58.8206C358.753 59.5564 359.116 60.1315 359.842 60.5458C360.564 60.9601 361.587 61.1672 362.909 61.1672C363.791 61.1672 364.54 61.0744 365.156 60.8888C365.773 60.7032 366.242 60.4364 366.563 60.0884C366.885 59.7371 367.045 59.3145 367.045 58.8206ZM368.139 50.0706C368.139 50.8197 367.935 51.4577 367.528 51.9847C367.117 52.5117 366.522 52.9144 365.743 53.1928C364.961 53.4712 364.016 53.6104 362.909 53.6104C361.809 53.6104 360.869 53.4712 360.09 53.1928C359.308 52.9111 358.711 52.5067 358.3 51.9797C357.886 51.4494 357.679 50.8131 357.679 50.0706C357.679 49.3282 357.886 48.6935 358.3 48.1665C358.711 47.6362 359.308 47.2319 360.09 46.9535C360.869 46.6717 361.809 46.5309 362.909 46.5309C364.016 46.5309 364.961 46.6701 365.743 46.9485C366.522 47.2269 367.117 47.6296 367.528 48.1566C367.935 48.6836 368.139 49.3216 368.139 50.0706ZM367.045 50.0706C367.045 49.3282 366.687 48.7515 365.972 48.3405C365.256 47.9295 364.235 47.7241 362.909 47.7241C362.027 47.7241 361.277 47.8185 360.657 48.0074C360.037 48.193 359.565 48.4615 359.24 48.8128C358.915 49.1608 358.753 49.5801 358.753 50.0706C358.753 50.8064 359.116 51.3815 359.842 51.7958C360.564 52.2101 361.587 52.4172 362.909 52.4172C363.791 52.4172 364.54 52.3244 365.156 52.1388C365.773 51.9532 366.242 51.6864 366.563 51.3384C366.885 50.9871 367.045 50.5645 367.045 50.0706ZM368.139 41.3206C368.139 42.0697 367.935 42.7077 367.528 43.2347C367.117 43.7617 366.522 44.1644 365.743 44.4428C364.961 44.7212 364.016 44.8604 362.909 44.8604C361.809 44.8604 360.869 44.7212 360.09 44.4428C359.308 44.1611 358.711 43.7567 358.3 43.2297C357.886 42.6994 357.679 42.0631 357.679 41.3206C357.679 40.5782 357.886 39.9435 358.3 39.4165C358.711 38.8862 359.308 38.4819 360.09 38.2035C360.869 37.9217 361.809 37.7809 362.909 37.7809C364.016 37.7809 364.961 37.9201 365.743 38.1985C366.522 38.4769 367.117 38.8796 367.528 39.4066C367.935 39.9336 368.139 40.5716 368.139 41.3206ZM367.045 41.3206C367.045 40.5782 366.687 40.0015 365.972 39.5905C365.256 39.1795 364.235 38.9741 362.909 38.9741C362.027 38.9741 361.277 39.0685 360.657 39.2574C360.037 39.443 359.565 39.7115 359.24 40.0628C358.915 40.4108 358.753 40.8301 358.753 41.3206C358.753 42.0564 359.116 42.6315 359.842 43.0458C360.564 43.4601 361.587 43.6672 362.909 43.6672C363.791 43.6672 364.54 43.5744 365.156 43.3888C365.773 43.2032 366.242 42.9364 366.563 42.5884C366.885 42.2371 367.045 41.8145 367.045 41.3206ZM368.139 32.5706C368.139 33.3197 367.935 33.9577 367.528 34.4847C367.117 35.0117 366.522 35.4144 365.743 35.6928C364.961 35.9712 364.016 36.1104 362.909 36.1104C361.809 36.1104 360.869 35.9712 360.09 35.6928C359.308 35.4111 358.711 35.0067 358.3 34.4797C357.886 33.9494 357.679 33.3131 357.679 32.5706C357.679 31.8282 357.886 31.1935 358.3 30.6665C358.711 30.1362 359.308 29.7319 360.09 29.4535C360.869 29.1717 361.809 29.0309 362.909 29.0309C364.016 29.0309 364.961 29.1701 365.743 29.4485C366.522 29.7269 367.117 30.1296 367.528 30.6566C367.935 31.1836 368.139 31.8216 368.139 32.5706ZM367.045 32.5706C367.045 31.8282 366.687 31.2515 365.972 30.8405C365.256 30.4295 364.235 30.2241 362.909 30.2241C362.027 30.2241 361.277 30.3185 360.657 30.5074C360.037 30.693 359.565 30.9615 359.24 31.3128C358.915 31.6608 358.753 32.0801 358.753 32.5706C358.753 33.3064 359.116 33.8815 359.842 34.2958C360.564 34.7101 361.587 34.9172 362.909 34.9172C363.791 34.9172 364.54 34.8244 365.156 34.6388C365.773 34.4532 366.242 34.1864 366.563 33.8384C366.885 33.4871 367.045 33.0645 367.045 32.5706ZM368.139 23.8206C368.139 24.5697 367.935 25.2077 367.528 25.7347C367.117 26.2617 366.522 26.6644 365.743 26.9428C364.961 27.2212 364.016 27.3604 362.909 27.3604C361.809 27.3604 360.869 27.2212 360.09 26.9428C359.308 26.6611 358.711 26.2567 358.3 25.7297C357.886 25.1994 357.679 24.5631 357.679 23.8206C357.679 23.0782 357.886 22.4435 358.3 21.9165C358.711 21.3862 359.308 20.9819 360.09 20.7035C360.869 20.4217 361.809 20.2809 362.909 20.2809C364.016 20.2809 364.961 20.4201 365.743 20.6985C366.522 20.9769 367.117 21.3796 367.528 21.9066C367.935 22.4336 368.139 23.0716 368.139 23.8206ZM367.045 23.8206C367.045 23.0782 366.687 22.5015 365.972 22.0905C365.256 21.6795 364.235 21.4741 362.909 21.4741C362.027 21.4741 361.277 21.5685 360.657 21.7574C360.037 21.943 359.565 22.2115 359.24 22.5628C358.915 22.9108 358.753 23.3301 358.753 23.8206C358.753 24.5564 359.116 25.1315 359.842 25.5458C360.564 25.9601 361.587 26.1672 362.909 26.1672C363.791 26.1672 364.54 26.0744 365.156 25.8888C365.773 25.7032 366.242 25.4364 366.563 25.0884C366.885 24.7371 367.045 24.3145 367.045 23.8206ZM368.139 15.0706C368.139 15.8197 367.935 16.4577 367.528 16.9847C367.117 17.5117 366.522 17.9144 365.743 18.1928C364.961 18.4712 364.016 18.6104 362.909 18.6104C361.809 18.6104 360.869 18.4712 360.09 18.1928C359.308 17.9111 358.711 17.5067 358.3 16.9797C357.886 16.4494 357.679 15.8131 357.679 15.0706C357.679 14.3282 357.886 13.6935 358.3 13.1665C358.711 12.6362 359.308 12.2319 360.09 11.9535C360.869 11.6717 361.809 11.5309 362.909 11.5309C364.016 11.5309 364.961 11.6701 365.743 11.9485C366.522 12.2269 367.117 12.6296 367.528 13.1566C367.935 13.6836 368.139 14.3216 368.139 15.0706ZM367.045 15.0706C367.045 14.3282 366.687 13.7515 365.972 13.3405C365.256 12.9295 364.235 12.7241 362.909 12.7241C362.027 12.7241 361.277 12.8185 360.657 13.0074C360.037 13.193 359.565 13.4615 359.24 13.8128C358.915 14.1608 358.753 14.5801 358.753 15.0706C358.753 15.8064 359.116 16.3815 359.842 16.7958C360.564 17.2101 361.587 17.4172 362.909 17.4172C363.791 17.4172 364.54 17.3244 365.156 17.1388C365.773 16.9532 366.242 16.6864 366.563 16.3384C366.885 15.9871 367.045 15.5645 367.045 15.0706Z" fill="white"/>
</g>
</svg>
