<svg width="150" height="39" viewBox="0 0 150 39" fill="none" xmlns="http://www.w3.org/2000/svg">
<path d="M122 13.25H110C109.59 13.25 109.25 12.91 109.25 12.5C109.25 12.09 109.59 11.75 110 11.75H122C122.41 11.75 122.75 12.09 122.75 12.5C122.75 12.91 122.41 13.25 122 13.25Z" fill="#121212"/>
<path d="M119 10.75H113C112.59 10.75 112.25 10.41 112.25 10C112.25 9.59 112.59 9.25 113 9.25H119C119.41 9.25 119.75 9.59 119.75 10C119.75 10.41 119.41 10.75 119 10.75Z" fill="#121212"/>
<path d="M117.909 24.2109C117.569 24.2109 117.289 24.4909 117.289 24.8309C117.289 25.1709 117.569 25.4509 117.909 25.4509C118.249 25.4509 118.529 25.1709 118.529 24.8309C118.529 24.4909 118.249 24.2109 117.909 24.2109Z" fill="#121212"/>
<path d="M113.51 25.7389C113.51 25.3989 113.23 25.1289 112.89 25.1289C112.55 25.1289 112.27 25.4089 112.27 25.7489C112.27 26.0889 112.55 26.3689 112.89 26.3689C113.23 26.3589 113.51 26.0789 113.51 25.7389Z" fill="#121212"/>
<path d="M122 15H110C107.8 15 106 16.8 106 19V26C106 28.2 107.8 30 110 30H122C124.2 30 126 28.2 126 26V19C126 16.8 124.2 15 122 15ZM120.03 20.46V24.83C120.03 24.85 120.02 24.86 120.02 24.88C119.99 26.02 119.06 26.95 117.91 26.95C116.74 26.95 115.79 26 115.79 24.83C115.79 23.66 116.74 22.71 117.91 22.71C118.13 22.71 118.33 22.75 118.53 22.81V21.44L115.01 22.4V25.73V25.74C115.01 26.91 114.06 27.86 112.89 27.86C111.72 27.86 110.77 26.91 110.77 25.74C110.77 24.57 111.72 23.62 112.89 23.62C113.11 23.62 113.31 23.66 113.51 23.72V21.82V20.22C113.51 19.33 114.06 18.61 114.91 18.39L117.64 17.64C118.52 17.41 119.06 17.64 119.37 17.88C119.67 18.11 120.03 18.58 120.03 19.47V20.46Z" fill="#121212"/>
<path d="M42 27V18.5C42 18.3448 41.9639 18.1916 41.8944 18.0528C41.825 17.9139 41.7242 17.7931 41.6 17.7L34.6 12.45C34.4269 12.3202 34.2164 12.25 34 12.25C33.7836 12.25 33.5731 12.3202 33.4 12.45L26.4 17.7C26.2758 17.7931 26.175 17.9139 26.1056 18.0528C26.0361 18.1916 26 18.3448 26 18.5V27C26 27.2652 26.1054 27.5196 26.2929 27.7071C26.4804 27.8946 26.7348 28 27 28H31C31.2652 28 31.5196 27.8946 31.7071 27.7071C31.8946 27.5196 32 27.2652 32 27V24C32 23.7348 32.1054 23.4804 32.2929 23.2929C32.4804 23.1054 32.7348 23 33 23H35C35.2652 23 35.5196 23.1054 35.7071 23.2929C35.8946 23.4804 36 23.7348 36 24V27C36 27.2652 36.1054 27.5196 36.2929 27.7071C36.4804 27.8946 36.7348 28 37 28H41C41.2652 28 41.5196 27.8946 41.7071 27.7071C41.8946 27.5196 42 27.2652 42 27Z" fill="#121212" stroke="#121212" stroke-width="1.5" stroke-linecap="round" stroke-linejoin="round"/>
<path fill-rule="evenodd" clip-rule="evenodd" d="M75 30C80.5228 30 85 25.5228 85 20C85 14.4771 80.5228 10 75 10C69.4771 10 65 14.4771 65 20C65 25.5228 69.4771 30 75 30ZM76.9563 22.0949C76.763 22.2644 76.5167 22.3629 76.024 22.56C73.7142 23.4839 72.5594 23.9459 71.8997 23.4976C71.7433 23.3913 71.6084 23.2564 71.5021 23.1C71.0539 22.4404 71.5158 21.2855 72.4397 18.9757C72.6368 18.483 72.7353 18.2367 72.9048 18.0434C72.948 17.9942 72.9944 17.9478 73.0436 17.9046C73.2368 17.7352 73.4832 17.6366 73.9759 17.4396C76.2856 16.5156 77.4405 16.0537 78.1002 16.502C78.2566 16.6082 78.3915 16.7431 78.4978 16.8995C78.946 17.5592 78.4841 18.7141 77.5602 21.0239C77.3631 21.5165 77.2646 21.7629 77.0951 21.9561C77.0519 22.0054 77.0055 22.0517 76.9563 22.0949Z" fill="#121212"/>
</svg>
