<svg width="129" height="25" viewBox="0 0 129 25" fill="none" xmlns="http://www.w3.org/2000/svg">
<g clip-path="url(#clip0_243_227)">
<path opacity="0.5" d="M112.166 7.165C111.46 8.08125 111.46 9.55375 111.46 12.5C111.46 15.4463 111.46 16.9194 112.166 17.8344C112.87 18.75 114.005 18.75 116.274 18.75H118.305C118.134 18.3574 118.058 17.9276 118.082 17.4976C118.107 17.0675 118.232 16.6502 118.447 16.2816C118.661 15.9129 118.959 15.6041 119.314 15.3816C119.669 15.159 120.071 15.0296 120.485 15.0044V12.6562C120.485 12.2833 120.628 11.9256 120.881 11.6619C121.135 11.3982 121.48 11.25 121.839 11.25C122.198 11.25 122.542 11.3982 122.796 11.6619C123.05 11.9256 123.192 12.2833 123.192 12.6562C123.192 12.7532 123.221 12.8477 123.275 12.9268C123.329 13.006 123.405 13.0658 123.493 13.0981V12.5C123.493 9.55375 123.493 8.08063 122.788 7.165C122.084 6.25 120.949 6.25 118.68 6.25H116.274C114.005 6.25 112.87 6.25 112.166 7.165Z" fill="#FF7D78"/>
<path fill-rule="evenodd" clip-rule="evenodd" d="M115.221 12.5C115.221 11.8784 115.458 11.2823 115.882 10.8427C116.305 10.4032 116.878 10.1563 117.477 10.1562C118.075 10.1562 118.649 10.4032 119.072 10.8427C119.495 11.2823 119.733 11.8784 119.733 12.5C119.733 13.1216 119.495 13.7177 119.072 14.1573C118.649 14.5968 118.075 14.8438 117.477 14.8438C116.878 14.8438 116.305 14.5968 115.882 14.1573C115.458 13.7177 115.221 13.1216 115.221 12.5ZM121.839 12.1875C121.958 12.1875 122.073 12.2369 122.158 12.3248C122.242 12.4127 122.29 12.5319 122.29 12.6562C122.29 13.0292 122.433 13.3869 122.686 13.6506C122.94 13.9143 123.285 14.0625 123.644 14.0625C123.763 14.0625 123.878 14.1119 123.963 14.1998C124.047 14.2877 124.095 14.4069 124.095 14.5312C124.095 14.6556 124.047 14.7748 123.963 14.8627C123.878 14.9506 123.763 15 123.644 15C123.155 15.0007 122.68 14.8362 122.29 14.5312V17.6562C122.29 18.0308 122.172 18.3951 121.954 18.6936C121.737 18.9922 121.431 19.2087 121.084 19.3103C120.737 19.4118 120.368 19.3929 120.032 19.2562C119.696 19.1196 119.413 18.8728 119.224 18.5534C119.036 18.234 118.953 17.8594 118.989 17.4867C119.024 17.114 119.176 16.7635 119.421 16.4886C119.666 16.2137 119.991 16.0294 120.345 15.9638C120.7 15.8981 121.066 15.9548 121.387 16.125V12.6562C121.387 12.5319 121.435 12.4127 121.52 12.3248C121.604 12.2369 121.719 12.1875 121.839 12.1875ZM121.387 17.6562C121.387 17.449 121.308 17.2503 121.167 17.1038C121.026 16.9573 120.835 16.875 120.635 16.875C120.436 16.875 120.245 16.9573 120.104 17.1038C119.963 17.2503 119.883 17.449 119.883 17.6562C119.883 17.8635 119.963 18.0622 120.104 18.2087C120.245 18.3552 120.436 18.4375 120.635 18.4375C120.835 18.4375 121.026 18.3552 121.167 18.2087C121.308 18.0622 121.387 17.8635 121.387 17.6562Z" fill="#FF7D78"/>
</g>
<path fill-rule="evenodd" clip-rule="evenodd" d="M11.8135 12.5C11.8135 11.1193 12.8909 10 14.22 10C15.5491 10 16.6266 11.1193 16.6266 12.5C16.6266 13.8807 15.5491 15 14.22 15C12.8909 15 11.8135 13.8807 11.8135 12.5Z" fill="#1ABCFE"/>
<path fill-rule="evenodd" clip-rule="evenodd" d="M7 17.5C7 16.1193 8.07744 15 9.40654 15H11.8131V17.5C11.8131 18.8807 10.7356 20 9.40654 20C8.07744 20 7 18.8807 7 17.5Z" fill="#0ACF83"/>
<path fill-rule="evenodd" clip-rule="evenodd" d="M11.8135 5V10H14.22C15.5491 10 16.6266 8.88069 16.6266 7.5C16.6266 6.11929 15.5491 5 14.22 5H11.8135Z" fill="#FF7262"/>
<path fill-rule="evenodd" clip-rule="evenodd" d="M7 7.5C7 8.88069 8.07744 10 9.40654 10H11.8131V5H9.40654C8.07744 5 7 6.11929 7 7.5Z" fill="#F24E1E"/>
<path fill-rule="evenodd" clip-rule="evenodd" d="M7 12.5C7 13.8807 8.07744 15 9.40654 15H11.8131V10H9.40654C8.07744 10 7 11.1193 7 12.5Z" fill="#A259FF"/>
<path d="M35.4562 5.59828C35.4562 5.12741 34.9487 5.1274 34.7231 5.18626C35.0389 4.92728 35.4092 4.99007 35.5408 5.06855L38.5902 6.62186C38.8808 6.76987 39.0651 7.07782 39.0651 7.41531V17.6338C39.0651 17.9758 38.8759 18.2871 38.5794 18.4327L35.71 19.8422C35.5126 19.9304 35.084 20.1482 34.7231 19.8421C35.1743 19.9305 35.4186 19.5969 35.4562 19.3713V5.59828Z" fill="url(#paint0_linear_243_227)"/>
<path d="M34.7599 5.17781C34.9992 5.12866 35.4563 5.15145 35.4563 5.59831V9.11565L26.211 16.3814C26.0494 16.5084 25.822 16.4873 25.6843 16.3326L24.7315 15.2615C24.5822 15.0937 24.5926 14.8311 24.7547 14.6768L34.7232 5.1863L34.7599 5.17781Z" fill="url(#paint1_linear_243_227)"/>
<path d="M35.4563 15.9129L26.211 8.64715C26.0494 8.52015 25.822 8.54122 25.6843 8.69595L24.7315 9.76706C24.5822 9.93484 24.5926 10.1975 24.7547 10.3518L34.7232 19.8423C35.1744 19.9306 35.4188 19.597 35.4563 19.3714V15.9129Z" fill="url(#paint2_linear_243_227)"/>
<path d="M70.5358 18.3929L69.5044 5H81.8809L80.8495 18.3929L75.6926 20L70.5358 18.3929Z" fill="#E44D26"/>
<path d="M80.8497 6.07143H75.6929V19.1964L79.8184 17.8571L80.8497 6.07143Z" fill="#F16529"/>
<path d="M72.3404 12.7679L71.8247 7.67857H79.8179L79.56 9.28572H73.3718L73.6296 11.1607H79.3022L78.7865 16.25L75.6924 17.3214L72.5982 16.25L72.3404 13.5714H73.8875L74.1453 14.9107L75.6924 15.4464L77.2394 14.9107L77.4973 12.7679H72.3404Z" fill="white"/>
<path d="M90.9122 18.3929L89.8809 5H102.257L101.226 18.3929L96.0691 20L90.9122 18.3929Z" fill="#1172B8"/>
<path d="M101.226 6.07143H96.0693V19.1964L100.195 17.8571L101.226 6.07143Z" fill="#33AADD"/>
<path d="M97.8742 12.7679H92.7173L92.4595 10.8929L96.585 9.55357H92.4595L92.2017 7.94643H100.195L99.937 9.82143L96.585 11.1607H99.6791L99.1634 16.25L96.0693 17.3214L92.9752 16.25L92.7173 13.5714H94.2644L94.5223 14.9107L96.0693 15.4464L97.6164 14.9107L97.8742 12.7679Z" fill="white"/>
<g clip-path="url(#clip1_243_227)">
<path d="M61.5042 5H47.0649V20H61.5042V5Z" fill="#F1DC50"/>
<path d="M54.2845 11.875C54.2845 14.8433 54.2845 16.5099 54.2845 16.875C54.2845 17.4226 53.9699 18.125 53.0812 18.125C51.6461 18.125 51.5771 16.875 51.5771 16.875M59.5729 13.4475C59.2118 12.8158 58.7332 12.5 58.1371 12.5C57.2063 12.5 56.691 13.125 56.691 13.75C56.691 14.375 56.9919 15 58.2002 15.3125C58.9691 15.5114 59.6992 15.9375 59.6992 16.875C59.6992 17.8125 58.9078 18.125 58.1951 18.125C57.2844 18.125 56.6827 17.7083 56.3902 16.875" stroke="#333333"/>
</g>
<defs>
<linearGradient id="paint0_linear_243_227" x1="36.8941" y1="5" x2="36.8941" y2="20" gradientUnits="userSpaceOnUse">
<stop stop-color="#32B5F1"/>
<stop offset="1" stop-color="#2B9FED"/>
</linearGradient>
<linearGradient id="paint1_linear_243_227" x1="35.4563" y1="6.89321" x2="24.8306" y2="15.4789" gradientUnits="userSpaceOnUse">
<stop stop-color="#0F6FB3"/>
<stop offset="0.270551" stop-color="#1279B7"/>
<stop offset="0.421376" stop-color="#1176B5"/>
<stop offset="0.618197" stop-color="#0E69AC"/>
<stop offset="0.855344" stop-color="#0F70AF"/>
<stop offset="1" stop-color="#0F6DAD"/>
</linearGradient>
<linearGradient id="paint2_linear_243_227" x1="25.2217" y1="9.27709" x2="35.8122" y2="17.7182" gradientUnits="userSpaceOnUse">
<stop stop-color="#1791D2"/>
<stop offset="1" stop-color="#1173C5"/>
</linearGradient>
<clipPath id="clip0_243_227">
<rect width="14.4393" height="15" fill="white" transform="translate(110.257 5)"/>
</clipPath>
<clipPath id="clip1_243_227">
<rect width="14.4393" height="15" fill="white" transform="translate(47.0649 5)"/>
</clipPath>
</defs>
</svg>
