<svg width="185" height="79" viewBox="0 0 185 79" fill="none" xmlns="http://www.w3.org/2000/svg">
<path d="M17.5284 16.4062V15.2727H24.2827V16.4062H21.5597V24H20.2472V16.4062H17.5284ZM25.7283 26.4545C25.538 26.4545 25.3647 26.4389 25.2085 26.4077C25.0522 26.3793 24.9357 26.348 24.859 26.3139L25.1658 25.2699C25.3988 25.3324 25.6062 25.3594 25.788 25.3509C25.9698 25.3423 26.1303 25.2741 26.2695 25.1463C26.4116 25.0185 26.5366 24.8097 26.6445 24.5199L26.8022 24.0852L24.4073 17.4545H25.771L27.4286 22.5341H27.4968L29.1545 17.4545H30.5224L27.8249 24.8736C27.6999 25.2145 27.5408 25.5028 27.3477 25.7386C27.1545 25.9773 26.9244 26.1563 26.6573 26.2756C26.3903 26.3949 26.0806 26.4545 25.7283 26.4545ZM31.7198 26.4545V17.4545H32.9641V18.5156H33.0707C33.1445 18.3793 33.2511 18.2216 33.3903 18.0426C33.5295 17.8636 33.7227 17.7074 33.9698 17.5739C34.217 17.4375 34.5437 17.3693 34.9499 17.3693C35.4783 17.3693 35.9499 17.5028 36.3647 17.7699C36.7795 18.0369 37.1048 18.4219 37.3406 18.9247C37.5792 19.4276 37.6985 20.0327 37.6985 20.7401C37.6985 21.4474 37.5806 22.054 37.3448 22.5597C37.109 23.0625 36.7852 23.4503 36.3732 23.723C35.9613 23.9929 35.4911 24.1278 34.9627 24.1278C34.565 24.1278 34.2397 24.0611 33.9869 23.9276C33.7369 23.794 33.5408 23.6378 33.3988 23.4588C33.2567 23.2798 33.1474 23.1207 33.0707 22.9815H32.994V26.4545H31.7198ZM32.9684 20.7273C32.9684 21.1875 33.0352 21.5909 33.1687 21.9375C33.3022 22.2841 33.4954 22.5554 33.7482 22.7514C34.0011 22.9446 34.3107 23.0412 34.6772 23.0412C35.0579 23.0412 35.3761 22.9403 35.6317 22.7386C35.8874 22.5341 36.0806 22.2571 36.2113 21.9077C36.3448 21.5582 36.4116 21.1648 36.4116 20.7273C36.4116 20.2955 36.3462 19.9077 36.2156 19.5639C36.0877 19.2202 35.8945 18.9489 35.636 18.75C35.3803 18.5511 35.0607 18.4517 34.6772 18.4517C34.3079 18.4517 33.9954 18.5469 33.7397 18.7372C33.4869 18.9276 33.2951 19.1932 33.1644 19.5341C33.0337 19.875 32.9684 20.2727 32.9684 20.7273ZM41.9471 24.1321C41.3022 24.1321 40.7468 23.9943 40.2809 23.7188C39.8178 23.4403 39.4599 23.0497 39.207 22.5469C38.957 22.0412 38.832 21.4489 38.832 20.7699C38.832 20.0994 38.957 19.5085 39.207 18.9972C39.4599 18.4858 39.8121 18.0866 40.2638 17.7997C40.7184 17.5128 41.2496 17.3693 41.8576 17.3693C42.2269 17.3693 42.5849 17.4304 42.9315 17.5526C43.2781 17.6747 43.5891 17.8665 43.8647 18.1278C44.1403 18.3892 44.3576 18.7287 44.5167 19.1463C44.6758 19.5611 44.7553 20.0653 44.7553 20.6591V21.1108H39.5522V20.1562H43.5067C43.5067 19.821 43.4386 19.5241 43.3022 19.2656C43.1658 19.0043 42.9741 18.7983 42.7269 18.6477C42.4826 18.4972 42.1957 18.4219 41.8661 18.4219C41.5082 18.4219 41.1957 18.5099 40.9286 18.6861C40.6644 18.8594 40.4599 19.0866 40.315 19.3679C40.1729 19.6463 40.1019 19.9489 40.1019 20.2756V21.0213C40.1019 21.4588 40.1786 21.831 40.332 22.1378C40.4883 22.4446 40.7056 22.679 40.984 22.8409C41.2624 23 41.5877 23.0795 41.9599 23.0795C42.2013 23.0795 42.4215 23.0455 42.6204 22.9773C42.8192 22.9062 42.9911 22.8011 43.136 22.6619C43.2809 22.5227 43.3917 22.3509 43.4684 22.1463L44.6744 22.3636C44.5778 22.7187 44.4045 23.0298 44.1545 23.2969C43.9073 23.5611 43.5962 23.767 43.2212 23.9148C42.8491 24.0597 42.4244 24.1321 41.9471 24.1321ZM49.2841 17.4545V18.4773H45.5852V17.4545H49.2841ZM46.5994 24V16.696C46.5994 16.2869 46.6889 15.9474 46.8679 15.6776C47.0469 15.4048 47.2841 15.2017 47.5795 15.0682C47.875 14.9318 48.196 14.8636 48.5426 14.8636C48.7983 14.8636 49.017 14.8849 49.1989 14.9276C49.3807 14.9673 49.5156 15.0043 49.6037 15.0384L49.3054 16.0696C49.2457 16.0526 49.169 16.0327 49.0753 16.0099C48.9815 15.9844 48.8679 15.9716 48.7344 15.9716C48.4247 15.9716 48.2031 16.0483 48.0696 16.2017C47.9389 16.3551 47.8736 16.5767 47.8736 16.8665V24H46.5994ZM52.3043 24.1449C51.8896 24.1449 51.5146 24.0682 51.1793 23.9148C50.8441 23.7585 50.5785 23.5327 50.3825 23.2372C50.1893 22.9418 50.0927 22.5795 50.0927 22.1506C50.0927 21.7812 50.1637 21.4773 50.3058 21.2386C50.4478 21 50.6396 20.8111 50.881 20.6719C51.1225 20.5327 51.3924 20.4276 51.6907 20.3565C51.989 20.2855 52.293 20.2315 52.6026 20.1946C52.9947 20.1491 53.3129 20.1122 53.5572 20.0838C53.8015 20.0526 53.979 20.0028 54.0898 19.9347C54.2006 19.8665 54.256 19.7557 54.256 19.6023V19.5724C54.256 19.2003 54.1509 18.9119 53.9407 18.7074C53.7333 18.5028 53.4237 18.4006 53.0117 18.4006C52.5827 18.4006 52.2447 18.4957 51.9975 18.6861C51.7532 18.8736 51.5842 19.0824 51.4904 19.3125L50.293 19.0398C50.435 18.642 50.6424 18.321 50.9151 18.0767C51.1907 17.8295 51.5075 17.6506 51.8654 17.5398C52.2234 17.4261 52.5998 17.3693 52.9947 17.3693C53.256 17.3693 53.533 17.4006 53.8256 17.4631C54.1211 17.5227 54.3967 17.6335 54.6523 17.7955C54.9109 17.9574 55.1225 18.1889 55.2873 18.4901C55.4521 18.7884 55.5344 19.1761 55.5344 19.6534V24H54.2901V23.1051H54.239C54.1566 23.2699 54.033 23.4318 53.8683 23.5909C53.7035 23.75 53.4918 23.8821 53.2333 23.9872C52.9748 24.0923 52.6651 24.1449 52.3043 24.1449ZM52.5813 23.1222C52.9336 23.1222 53.2347 23.0526 53.4847 22.9134C53.7376 22.7741 53.9293 22.5923 54.06 22.3679C54.1935 22.1406 54.2603 21.8977 54.2603 21.6392V20.7955C54.2148 20.8409 54.1268 20.8835 53.9961 20.9233C53.8683 20.9602 53.7219 20.9929 53.5572 21.0213C53.3924 21.0469 53.2319 21.071 53.0756 21.0938C52.9194 21.1136 52.7887 21.1307 52.6836 21.1449C52.4364 21.1761 52.2106 21.2287 52.006 21.3026C51.8043 21.3764 51.6424 21.483 51.5202 21.6222C51.4009 21.7585 51.3413 21.9403 51.3413 22.1676C51.3413 22.483 51.4577 22.7216 51.6907 22.8835C51.9237 23.0426 52.2205 23.1222 52.5813 23.1222ZM59.9886 24.1321C59.3551 24.1321 58.8097 23.9886 58.3523 23.7017C57.8977 23.4119 57.5483 23.0128 57.304 22.5043C57.0597 21.9957 56.9375 21.4134 56.9375 20.7571C56.9375 20.0923 57.0625 19.5057 57.3125 18.9972C57.5625 18.4858 57.9148 18.0866 58.3693 17.7997C58.8239 17.5128 59.3594 17.3693 59.9759 17.3693C60.473 17.3693 60.9162 17.4616 61.3054 17.6463C61.6946 17.8281 62.0085 18.0838 62.2472 18.4134C62.4886 18.7429 62.6321 19.1278 62.6776 19.5682H61.4375C61.3693 19.2614 61.2131 18.9972 60.9688 18.7756C60.7273 18.554 60.4034 18.4432 59.9972 18.4432C59.642 18.4432 59.331 18.5369 59.0639 18.7244C58.7997 18.9091 58.5938 19.1733 58.446 19.517C58.2983 19.858 58.2244 20.2614 58.2244 20.7273C58.2244 21.2045 58.2969 21.6165 58.4418 21.9631C58.5866 22.3097 58.7912 22.5781 59.0554 22.7685C59.3224 22.9588 59.6364 23.054 59.9972 23.054C60.2386 23.054 60.4574 23.0099 60.6534 22.9219C60.8523 22.831 61.0185 22.7017 61.152 22.5341C61.2884 22.3665 61.3835 22.1648 61.4375 21.929H62.6776C62.6321 22.3523 62.4943 22.7301 62.2642 23.0625C62.0341 23.3949 61.7259 23.6562 61.3395 23.8466C60.956 24.0369 60.5057 24.1321 59.9886 24.1321ZM66.8612 24.1321C66.2163 24.1321 65.6609 23.9943 65.195 23.7188C64.7319 23.4403 64.3739 23.0497 64.1211 22.5469C63.8711 22.0412 63.7461 21.4489 63.7461 20.7699C63.7461 20.0994 63.8711 19.5085 64.1211 18.9972C64.3739 18.4858 64.7262 18.0866 65.1779 17.7997C65.6325 17.5128 66.1637 17.3693 66.7717 17.3693C67.141 17.3693 67.4989 17.4304 67.8455 17.5526C68.1921 17.6747 68.5032 17.8665 68.7788 18.1278C69.0543 18.3892 69.2717 18.7287 69.4308 19.1463C69.5898 19.5611 69.6694 20.0653 69.6694 20.6591V21.1108H64.4663V20.1562H68.4208C68.4208 19.821 68.3526 19.5241 68.2163 19.2656C68.0799 19.0043 67.8881 18.7983 67.641 18.6477C67.3967 18.4972 67.1097 18.4219 66.7802 18.4219C66.4222 18.4219 66.1097 18.5099 65.8427 18.6861C65.5785 18.8594 65.3739 19.0866 65.229 19.3679C65.087 19.6463 65.016 19.9489 65.016 20.2756V21.0213C65.016 21.4588 65.0927 21.831 65.2461 22.1378C65.4023 22.4446 65.6197 22.679 65.8981 22.8409C66.1765 23 66.5018 23.0795 66.8739 23.0795C67.1154 23.0795 67.3356 23.0455 67.5344 22.9773C67.7333 22.9062 67.9052 22.8011 68.0501 22.6619C68.195 22.5227 68.3058 22.3509 68.3825 22.1463L69.5884 22.3636C69.4918 22.7187 69.3185 23.0298 69.0685 23.2969C68.8214 23.5611 68.5103 23.767 68.1353 23.9148C67.7631 24.0597 67.3384 24.1321 66.8612 24.1321Z" fill="#1D1D1D"/>
<path d="M111.528 16.4062V15.2727H118.283V16.4062H115.56V24H114.247V16.4062H111.528ZM119.728 26.4545C119.538 26.4545 119.365 26.4389 119.208 26.4077C119.052 26.3793 118.936 26.348 118.859 26.3139L119.166 25.2699C119.399 25.3324 119.606 25.3594 119.788 25.3509C119.97 25.3423 120.13 25.2741 120.27 25.1463C120.412 25.0185 120.537 24.8097 120.645 24.5199L120.802 24.0852L118.407 17.4545H119.771L121.429 22.5341H121.497L123.154 17.4545H124.522L121.825 24.8736C121.7 25.2145 121.541 25.5028 121.348 25.7386C121.154 25.9773 120.924 26.1563 120.657 26.2756C120.39 26.3949 120.081 26.4545 119.728 26.4545ZM125.72 26.4545V17.4545H126.964V18.5156H127.071C127.145 18.3793 127.251 18.2216 127.39 18.0426C127.529 17.8636 127.723 17.7074 127.97 17.5739C128.217 17.4375 128.544 17.3693 128.95 17.3693C129.478 17.3693 129.95 17.5028 130.365 17.7699C130.779 18.0369 131.105 18.4219 131.341 18.9247C131.579 19.4276 131.699 20.0327 131.699 20.7401C131.699 21.4474 131.581 22.054 131.345 22.5597C131.109 23.0625 130.785 23.4503 130.373 23.723C129.961 23.9929 129.491 24.1278 128.963 24.1278C128.565 24.1278 128.24 24.0611 127.987 23.9276C127.737 23.794 127.541 23.6378 127.399 23.4588C127.257 23.2798 127.147 23.1207 127.071 22.9815H126.994V26.4545H125.72ZM126.968 20.7273C126.968 21.1875 127.035 21.5909 127.169 21.9375C127.302 22.2841 127.495 22.5554 127.748 22.7514C128.001 22.9446 128.311 23.0412 128.677 23.0412C129.058 23.0412 129.376 22.9403 129.632 22.7386C129.887 22.5341 130.081 22.2571 130.211 21.9077C130.345 21.5582 130.412 21.1648 130.412 20.7273C130.412 20.2955 130.346 19.9077 130.216 19.5639C130.088 19.2202 129.895 18.9489 129.636 18.75C129.38 18.5511 129.061 18.4517 128.677 18.4517C128.308 18.4517 127.995 18.5469 127.74 18.7372C127.487 18.9276 127.295 19.1932 127.164 19.5341C127.034 19.875 126.968 20.2727 126.968 20.7273ZM135.947 24.1321C135.302 24.1321 134.747 23.9943 134.281 23.7188C133.818 23.4403 133.46 23.0497 133.207 22.5469C132.957 22.0412 132.832 21.4489 132.832 20.7699C132.832 20.0994 132.957 19.5085 133.207 18.9972C133.46 18.4858 133.812 18.0866 134.264 17.7997C134.718 17.5128 135.25 17.3693 135.858 17.3693C136.227 17.3693 136.585 17.4304 136.931 17.5526C137.278 17.6747 137.589 17.8665 137.865 18.1278C138.14 18.3892 138.358 18.7287 138.517 19.1463C138.676 19.5611 138.755 20.0653 138.755 20.6591V21.1108H133.552V20.1562H137.507C137.507 19.821 137.439 19.5241 137.302 19.2656C137.166 19.0043 136.974 18.7983 136.727 18.6477C136.483 18.4972 136.196 18.4219 135.866 18.4219C135.508 18.4219 135.196 18.5099 134.929 18.6861C134.664 18.8594 134.46 19.0866 134.315 19.3679C134.173 19.6463 134.102 19.9489 134.102 20.2756V21.0213C134.102 21.4588 134.179 21.831 134.332 22.1378C134.488 22.4446 134.706 22.679 134.984 22.8409C135.262 23 135.588 23.0795 135.96 23.0795C136.201 23.0795 136.422 23.0455 136.62 22.9773C136.819 22.9062 136.991 22.8011 137.136 22.6619C137.281 22.5227 137.392 22.3509 137.468 22.1463L138.674 22.3636C138.578 22.7187 138.404 23.0298 138.154 23.2969C137.907 23.5611 137.596 23.767 137.221 23.9148C136.849 24.0597 136.424 24.1321 135.947 24.1321ZM145.074 19.0526L143.919 19.2571C143.871 19.1094 143.794 18.9687 143.689 18.8352C143.587 18.7017 143.447 18.5923 143.271 18.5071C143.095 18.4219 142.875 18.3793 142.611 18.3793C142.25 18.3793 141.949 18.4602 141.707 18.6222C141.466 18.7812 141.345 18.9872 141.345 19.2401C141.345 19.4588 141.426 19.6349 141.588 19.7685C141.75 19.902 142.011 20.0114 142.372 20.0966L143.412 20.3352C144.014 20.4744 144.463 20.6889 144.759 20.9787C145.054 21.2685 145.202 21.6449 145.202 22.108C145.202 22.5 145.088 22.8494 144.861 23.1562C144.636 23.4602 144.322 23.6989 143.919 23.8722C143.518 24.0455 143.054 24.1321 142.526 24.1321C141.793 24.1321 141.195 23.9759 140.732 23.6634C140.268 23.348 139.984 22.9006 139.879 22.321L141.111 22.1335C141.188 22.4545 141.345 22.6974 141.584 22.8622C141.822 23.0241 142.134 23.1051 142.517 23.1051C142.935 23.1051 143.268 23.0185 143.518 22.8452C143.768 22.669 143.893 22.4545 143.893 22.2017C143.893 21.9972 143.817 21.8253 143.663 21.6861C143.513 21.5469 143.281 21.4418 142.969 21.3707L141.861 21.1278C141.25 20.9886 140.798 20.767 140.506 20.4631C140.216 20.1591 140.071 19.7741 140.071 19.3082C140.071 18.9219 140.179 18.5838 140.395 18.294C140.611 18.0043 140.909 17.7784 141.29 17.6165C141.67 17.4517 142.107 17.3693 142.598 17.3693C143.305 17.3693 143.862 17.5227 144.268 17.8295C144.675 18.1335 144.943 18.5412 145.074 19.0526ZM149.658 17.4545V18.4773H146.083V17.4545H149.658ZM147.042 15.8864H148.316V22.0781C148.316 22.3253 148.353 22.5114 148.426 22.6364C148.5 22.7585 148.596 22.8423 148.712 22.8878C148.831 22.9304 148.961 22.9517 149.1 22.9517C149.202 22.9517 149.292 22.9446 149.368 22.9304C149.445 22.9162 149.505 22.9048 149.547 22.8963L149.777 23.9489C149.703 23.9773 149.598 24.0057 149.462 24.0341C149.326 24.0653 149.155 24.0824 148.951 24.0852C148.615 24.0909 148.303 24.0312 148.013 23.9062C147.723 23.7812 147.489 23.5881 147.31 23.3267C147.131 23.0653 147.042 22.7372 147.042 22.3423V15.8864ZM151.873 26.4545C151.683 26.4545 151.509 26.4389 151.353 26.4077C151.197 26.3793 151.08 26.348 151.004 26.3139L151.31 25.2699C151.543 25.3324 151.751 25.3594 151.933 25.3509C152.114 25.3423 152.275 25.2741 152.414 25.1463C152.556 25.0185 152.681 24.8097 152.789 24.5199L152.947 24.0852L150.552 17.4545H151.915L153.573 22.5341H153.641L155.299 17.4545H156.667L153.969 24.8736C153.844 25.2145 153.685 25.5028 153.492 25.7386C153.299 25.9773 153.069 26.1563 152.802 26.2756C152.535 26.3949 152.225 26.4545 151.873 26.4545ZM159.138 15.2727V24H157.864V15.2727H159.138ZM163.674 24.1321C163.029 24.1321 162.473 23.9943 162.007 23.7188C161.544 23.4403 161.186 23.0497 160.934 22.5469C160.684 22.0412 160.559 21.4489 160.559 20.7699C160.559 20.0994 160.684 19.5085 160.934 18.9972C161.186 18.4858 161.539 18.0866 161.99 17.7997C162.445 17.5128 162.976 17.3693 163.584 17.3693C163.953 17.3693 164.311 17.4304 164.658 17.5526C165.005 17.6747 165.316 17.8665 165.591 18.1278C165.867 18.3892 166.084 18.7287 166.243 19.1463C166.402 19.5611 166.482 20.0653 166.482 20.6591V21.1108H161.279V20.1562H165.233C165.233 19.821 165.165 19.5241 165.029 19.2656C164.892 19.0043 164.701 18.7983 164.453 18.6477C164.209 18.4972 163.922 18.4219 163.593 18.4219C163.235 18.4219 162.922 18.5099 162.655 18.6861C162.391 18.8594 162.186 19.0866 162.042 19.3679C161.9 19.6463 161.828 19.9489 161.828 20.2756V21.0213C161.828 21.4588 161.905 21.831 162.059 22.1378C162.215 22.4446 162.432 22.679 162.711 22.8409C162.989 23 163.314 23.0795 163.686 23.0795C163.928 23.0795 164.148 23.0455 164.347 22.9773C164.546 22.9062 164.718 22.8011 164.863 22.6619C165.007 22.5227 165.118 22.3509 165.195 22.1463L166.401 22.3636C166.304 22.7187 166.131 23.0298 165.881 23.2969C165.634 23.5611 165.323 23.767 164.948 23.9148C164.576 24.0597 164.151 24.1321 163.674 24.1321Z" fill="#1D1D1D"/>
<path d="M19.58 53H18.164V44.612H20.372L22.904 49.88L25.436 44.612H27.632V53H26.216V46.448L23.288 52.268H22.496L19.58 46.448V53ZM31.2608 51.32C31.6448 51.704 32.1288 51.896 32.7128 51.896C33.2968 51.896 33.7768 51.704 34.1528 51.32C34.5368 50.928 34.7288 50.424 34.7288 49.808C34.7288 49.192 34.5368 48.692 34.1528 48.308C33.7768 47.916 33.2968 47.72 32.7128 47.72C32.1288 47.72 31.6448 47.916 31.2608 48.308C30.8848 48.692 30.6968 49.192 30.6968 49.808C30.6968 50.424 30.8848 50.928 31.2608 51.32ZM35.1128 52.148C34.4728 52.78 33.6728 53.096 32.7128 53.096C31.7528 53.096 30.9528 52.78 30.3128 52.148C29.6728 51.508 29.3528 50.728 29.3528 49.808C29.3528 48.888 29.6728 48.112 30.3128 47.48C30.9528 46.84 31.7528 46.52 32.7128 46.52C33.6728 46.52 34.4728 46.84 35.1128 47.48C35.7528 48.112 36.0728 48.888 36.0728 49.808C36.0728 50.728 35.7528 51.508 35.1128 52.148ZM38.9449 49.544V53H37.6009V46.616H38.9449V47.78C39.1609 47.388 39.4569 47.08 39.8329 46.856C40.2169 46.632 40.6289 46.52 41.0689 46.52C41.7889 46.52 42.3689 46.74 42.8089 47.18C43.2569 47.62 43.4809 48.256 43.4809 49.088V53H42.1369V49.496C42.1369 48.32 41.6489 47.732 40.6729 47.732C40.2089 47.732 39.8049 47.888 39.4609 48.2C39.1169 48.504 38.9449 48.952 38.9449 49.544ZM46.9327 47.696V50.936C46.9327 51.24 47.0127 51.484 47.1727 51.668C47.3327 51.844 47.5567 51.932 47.8447 51.932C48.1327 51.932 48.4087 51.792 48.6727 51.512L49.2247 52.46C48.7527 52.884 48.2287 53.096 47.6527 53.096C47.0847 53.096 46.5967 52.9 46.1887 52.508C45.7887 52.108 45.5887 51.572 45.5887 50.9V47.696H44.7847V46.616H45.5887V44.612H46.9327V46.616H48.6127V47.696H46.9327ZM54.8403 51.092C54.8403 51.7 54.6203 52.188 54.1803 52.556C53.7403 52.916 53.1763 53.096 52.4883 53.096C52.0243 53.096 51.5403 53.012 51.0363 52.844C50.5403 52.676 50.1003 52.44 49.7163 52.136L50.3643 51.092C51.1083 51.652 51.8283 51.932 52.5243 51.932C52.8283 51.932 53.0683 51.864 53.2443 51.728C53.4203 51.584 53.5083 51.404 53.5083 51.188C53.5083 50.868 53.0843 50.58 52.2363 50.324C52.1723 50.3 52.1243 50.284 52.0923 50.276C50.7643 49.916 50.1003 49.316 50.1003 48.476C50.1003 47.884 50.3283 47.412 50.7843 47.06C51.2483 46.7 51.8483 46.52 52.5843 46.52C53.3203 46.52 54.0163 46.736 54.6723 47.168L54.1683 48.164C53.6483 47.82 53.0843 47.648 52.4763 47.648C52.1563 47.648 51.8963 47.708 51.6963 47.828C51.4963 47.94 51.3963 48.112 51.3963 48.344C51.3963 48.552 51.5003 48.704 51.7083 48.8C51.8523 48.872 52.0523 48.94 52.3083 49.004C52.5723 49.068 52.8043 49.132 53.0043 49.196C53.2043 49.26 53.3963 49.332 53.5803 49.412C53.7723 49.492 53.9763 49.604 54.1923 49.748C54.6243 50.036 54.8403 50.484 54.8403 51.092ZM62.3026 50.396H57.2986C57.3306 50.86 57.5426 51.236 57.9346 51.524C58.3266 51.804 58.7746 51.944 59.2786 51.944C60.0786 51.944 60.6866 51.692 61.1026 51.188L61.8706 52.028C61.1826 52.74 60.2866 53.096 59.1826 53.096C58.2866 53.096 57.5226 52.8 56.8906 52.208C56.2666 51.608 55.9546 50.808 55.9546 49.808C55.9546 48.8 56.2746 48 56.9146 47.408C57.5546 46.816 58.3066 46.52 59.1706 46.52C60.0426 46.52 60.7826 46.784 61.3906 47.312C61.9986 47.832 62.3026 48.552 62.3026 49.472V50.396ZM57.2986 49.34H60.9586C60.9586 48.804 60.7906 48.392 60.4546 48.104C60.1186 47.816 59.7026 47.672 59.2066 47.672C58.7186 47.672 58.2786 47.824 57.8866 48.128C57.4946 48.424 57.2986 48.828 57.2986 49.34ZM67.1286 47.876C66.4646 47.876 65.9646 48.092 65.6286 48.524C65.2926 48.956 65.1246 49.536 65.1246 50.264V53H63.7806V46.616H65.1246V47.9C65.3406 47.5 65.6326 47.172 66.0006 46.916C66.3766 46.66 66.7726 46.528 67.1886 46.52L67.2006 47.876C67.1766 47.876 67.1526 47.876 67.1286 47.876ZM71.8981 47.876C71.2341 47.876 70.7341 48.092 70.3981 48.524C70.0621 48.956 69.8941 49.536 69.8941 50.264V53H68.5501V46.616H69.8941V47.9C70.1101 47.5 70.4021 47.172 70.7701 46.916C71.1461 46.66 71.5421 46.528 71.9581 46.52L71.9701 47.876C71.9461 47.876 71.9221 47.876 71.8981 47.876ZM78.4331 53H77.2091V52.148C76.6811 52.78 75.9731 53.096 75.0851 53.096C74.4211 53.096 73.8691 52.908 73.4291 52.532C72.9971 52.156 72.7811 51.656 72.7811 51.032C72.7811 50.4 73.0131 49.928 73.4771 49.616C73.9411 49.304 74.5691 49.148 75.3611 49.148H77.1011V48.908C77.1011 48.06 76.6291 47.636 75.6851 47.636C75.0931 47.636 74.4771 47.852 73.8371 48.284L73.2371 47.444C74.0131 46.828 74.8931 46.52 75.8771 46.52C76.6291 46.52 77.2411 46.712 77.7131 47.096C78.1931 47.472 78.4331 48.068 78.4331 48.884V53ZM77.0891 50.624V50.084H75.5771C74.6091 50.084 74.1251 50.388 74.1251 50.996C74.1251 51.308 74.2451 51.548 74.4851 51.716C74.7251 51.876 75.0571 51.956 75.4811 51.956C75.9131 51.956 76.2891 51.836 76.6091 51.596C76.9291 51.356 77.0891 51.032 77.0891 50.624ZM81.8897 47.696V50.936C81.8897 51.24 81.9697 51.484 82.1297 51.668C82.2897 51.844 82.5137 51.932 82.8017 51.932C83.0897 51.932 83.3657 51.792 83.6297 51.512L84.1817 52.46C83.7097 52.884 83.1857 53.096 82.6097 53.096C82.0417 53.096 81.5537 52.9 81.1457 52.508C80.7457 52.108 80.5457 51.572 80.5457 50.9V47.696H79.7417V46.616H80.5457V44.612H81.8897V46.616H83.5697V47.696H81.8897Z" fill="#1D1D1D"/>
<path d="M112.164 53V44.612H113.58V48.248H117.744V44.612H119.16V53H117.744V49.568H113.58V53H112.164ZM127.24 50.396H122.236C122.268 50.86 122.48 51.236 122.872 51.524C123.264 51.804 123.712 51.944 124.216 51.944C125.016 51.944 125.624 51.692 126.04 51.188L126.808 52.028C126.12 52.74 125.224 53.096 124.12 53.096C123.224 53.096 122.46 52.8 121.828 52.208C121.204 51.608 120.892 50.808 120.892 49.808C120.892 48.8 121.212 48 121.852 47.408C122.492 46.816 123.244 46.52 124.108 46.52C124.98 46.52 125.72 46.784 126.328 47.312C126.936 47.832 127.24 48.552 127.24 49.472V50.396ZM122.236 49.34H125.896C125.896 48.804 125.728 48.392 125.392 48.104C125.056 47.816 124.64 47.672 124.144 47.672C123.656 47.672 123.216 47.824 122.824 48.128C122.432 48.424 122.236 48.828 122.236 49.34ZM133.89 53H132.666V52.148C132.138 52.78 131.43 53.096 130.542 53.096C129.878 53.096 129.326 52.908 128.886 52.532C128.454 52.156 128.238 51.656 128.238 51.032C128.238 50.4 128.47 49.928 128.934 49.616C129.398 49.304 130.026 49.148 130.818 49.148H132.558V48.908C132.558 48.06 132.086 47.636 131.142 47.636C130.55 47.636 129.934 47.852 129.294 48.284L128.694 47.444C129.47 46.828 130.35 46.52 131.334 46.52C132.086 46.52 132.698 46.712 133.17 47.096C133.65 47.472 133.89 48.068 133.89 48.884V53ZM132.546 50.624V50.084H131.034C130.066 50.084 129.582 50.388 129.582 50.996C129.582 51.308 129.702 51.548 129.942 51.716C130.182 51.876 130.514 51.956 130.938 51.956C131.37 51.956 131.746 51.836 132.066 51.596C132.386 51.356 132.546 51.032 132.546 50.624ZM138.365 53.096C137.557 53.096 136.853 52.792 136.253 52.184C135.653 51.576 135.353 50.776 135.353 49.784C135.353 48.792 135.661 48 136.277 47.408C136.893 46.816 137.625 46.52 138.473 46.52C139.329 46.52 140.017 46.88 140.537 47.6V44.096H141.881V53H140.537V52.04C140.041 52.744 139.317 53.096 138.365 53.096ZM136.697 49.844C136.697 50.452 136.893 50.948 137.285 51.332C137.677 51.716 138.137 51.908 138.665 51.908C139.193 51.908 139.641 51.716 140.009 51.332C140.377 50.94 140.561 50.44 140.561 49.832C140.561 49.224 140.377 48.716 140.009 48.308C139.641 47.9 139.189 47.696 138.653 47.696C138.117 47.696 137.657 47.9 137.273 48.308C136.889 48.716 136.697 49.228 136.697 49.844ZM145.168 53H143.824V46.616H145.168V53ZM143.908 45.344C143.74 45.176 143.656 44.976 143.656 44.744C143.656 44.512 143.74 44.312 143.908 44.144C144.076 43.976 144.276 43.892 144.508 43.892C144.74 43.892 144.94 43.976 145.108 44.144C145.276 44.312 145.36 44.512 145.36 44.744C145.36 44.976 145.276 45.176 145.108 45.344C144.94 45.512 144.74 45.596 144.508 45.596C144.276 45.596 144.076 45.512 143.908 45.344ZM148.461 49.544V53H147.117V46.616H148.461V47.78C148.677 47.388 148.973 47.08 149.349 46.856C149.733 46.632 150.145 46.52 150.585 46.52C151.305 46.52 151.885 46.74 152.325 47.18C152.773 47.62 152.997 48.256 152.997 49.088V53H151.653V49.496C151.653 48.32 151.165 47.732 150.189 47.732C149.725 47.732 149.321 47.888 148.977 48.2C148.633 48.504 148.461 48.952 148.461 49.544ZM160.778 46.616V52.184C160.778 53.312 160.47 54.156 159.854 54.716C159.246 55.284 158.462 55.568 157.502 55.568C156.542 55.568 155.674 55.268 154.898 54.668L155.534 53.648C156.158 54.12 156.786 54.356 157.418 54.356C158.058 54.356 158.562 54.192 158.93 53.864C159.306 53.536 159.494 53.012 159.494 52.292V51.476C159.294 51.852 159.006 52.152 158.63 52.376C158.262 52.6 157.846 52.712 157.382 52.712C156.534 52.712 155.838 52.416 155.294 51.824C154.75 51.232 154.478 50.496 154.478 49.616C154.478 48.736 154.75 48 155.294 47.408C155.838 46.816 156.53 46.52 157.37 46.52C158.218 46.52 158.906 46.868 159.434 47.564V46.616H160.778ZM155.798 49.568C155.798 50.088 155.958 50.54 156.278 50.924C156.606 51.3 157.042 51.488 157.586 51.488C158.138 51.488 158.582 51.304 158.918 50.936C159.262 50.568 159.434 50.112 159.434 49.568C159.434 49.016 159.262 48.552 158.918 48.176C158.574 47.792 158.13 47.6 157.586 47.6C157.042 47.6 156.606 47.796 156.278 48.188C155.958 48.58 155.798 49.04 155.798 49.568Z" fill="#1D1D1D"/>
<path d="M113.696 60.408C114.544 60.408 115.163 60.5707 115.552 60.896C115.941 61.2213 116.136 61.7227 116.136 62.4C116.136 63.0773 115.936 63.5733 115.536 63.888C115.141 64.2027 114.533 64.36 113.712 64.36H112.72V66H111.776V60.408H113.696ZM113.816 63.504C114.339 63.504 114.693 63.4053 114.88 63.208C115.072 63.0053 115.168 62.712 115.168 62.328C115.168 61.9387 115.048 61.664 114.808 61.504C114.568 61.344 114.192 61.264 113.68 61.264H112.72V63.504H113.816ZM120.487 66H119.671V65.432C119.319 65.8533 118.847 66.064 118.255 66.064C117.812 66.064 117.444 65.9387 117.151 65.688C116.863 65.4373 116.719 65.104 116.719 64.688C116.719 64.2667 116.873 63.952 117.183 63.744C117.492 63.536 117.911 63.432 118.439 63.432H119.599V63.272C119.599 62.7067 119.284 62.424 118.655 62.424C118.26 62.424 117.849 62.568 117.423 62.856L117.023 62.296C117.54 61.8853 118.127 61.68 118.783 61.68C119.284 61.68 119.692 61.808 120.007 62.064C120.327 62.3147 120.487 62.712 120.487 63.256V66ZM119.591 64.416V64.056H118.583C117.937 64.056 117.615 64.2587 117.615 64.664C117.615 64.872 117.695 65.032 117.855 65.144C118.015 65.2507 118.236 65.304 118.519 65.304C118.807 65.304 119.057 65.224 119.271 65.064C119.484 64.904 119.591 64.688 119.591 64.416ZM123.966 62.584C123.523 62.584 123.19 62.728 122.966 63.016C122.742 63.304 122.63 63.6907 122.63 64.176V66H121.734V61.744H122.63V62.6C122.774 62.3333 122.969 62.1147 123.214 61.944C123.465 61.7733 123.729 61.6853 124.006 61.68L124.014 62.584C123.998 62.584 123.982 62.584 123.966 62.584ZM128.323 66H127.507V65.432C127.155 65.8533 126.683 66.064 126.091 66.064C125.648 66.064 125.28 65.9387 124.987 65.688C124.699 65.4373 124.555 65.104 124.555 64.688C124.555 64.2667 124.709 63.952 125.019 63.744C125.328 63.536 125.747 63.432 126.275 63.432H127.435V63.272C127.435 62.7067 127.12 62.424 126.491 62.424C126.096 62.424 125.685 62.568 125.259 62.856L124.859 62.296C125.376 61.8853 125.963 61.68 126.619 61.68C127.12 61.68 127.528 61.808 127.843 62.064C128.163 62.3147 128.323 62.712 128.323 63.256V66ZM127.427 64.416V64.056H126.419C125.773 64.056 125.451 64.2587 125.451 64.664C125.451 64.872 125.531 65.032 125.691 65.144C125.851 65.2507 126.072 65.304 126.355 65.304C126.643 65.304 126.893 65.224 127.107 65.064C127.32 64.904 127.427 64.688 127.427 64.416ZM133.506 61.744V65.456C133.506 66.208 133.301 66.7707 132.89 67.144C132.485 67.5227 131.962 67.712 131.322 67.712C130.682 67.712 130.103 67.512 129.586 67.112L130.01 66.432C130.426 66.7467 130.845 66.904 131.266 66.904C131.693 66.904 132.029 66.7947 132.274 66.576C132.525 66.3573 132.65 66.008 132.65 65.528V64.984C132.517 65.2347 132.325 65.4347 132.074 65.584C131.829 65.7333 131.551 65.808 131.242 65.808C130.677 65.808 130.213 65.6107 129.85 65.216C129.487 64.8213 129.306 64.3307 129.306 63.744C129.306 63.1573 129.487 62.6667 129.85 62.272C130.213 61.8773 130.674 61.68 131.234 61.68C131.799 61.68 132.258 61.912 132.61 62.376V61.744H133.506ZM130.186 63.712C130.186 64.0587 130.293 64.36 130.506 64.616C130.725 64.8667 131.015 64.992 131.378 64.992C131.746 64.992 132.042 64.8693 132.266 64.624C132.495 64.3787 132.61 64.0747 132.61 63.712C132.61 63.344 132.495 63.0347 132.266 62.784C132.037 62.528 131.741 62.4 131.378 62.4C131.015 62.4 130.725 62.5307 130.506 62.792C130.293 63.0533 130.186 63.36 130.186 63.712ZM137.036 62.584C136.594 62.584 136.26 62.728 136.036 63.016C135.812 63.304 135.7 63.6907 135.7 64.176V66H134.804V61.744H135.7V62.6C135.844 62.3333 136.039 62.1147 136.284 61.944C136.535 61.7733 136.799 61.6853 137.076 61.68L137.084 62.584C137.068 62.584 137.052 62.584 137.036 62.584ZM141.393 66H140.577V65.432C140.225 65.8533 139.753 66.064 139.161 66.064C138.718 66.064 138.35 65.9387 138.057 65.688C137.769 65.4373 137.625 65.104 137.625 64.688C137.625 64.2667 137.78 63.952 138.089 63.744C138.398 63.536 138.817 63.432 139.345 63.432H140.505V63.272C140.505 62.7067 140.19 62.424 139.561 62.424C139.166 62.424 138.756 62.568 138.329 62.856L137.929 62.296C138.446 61.8853 139.033 61.68 139.689 61.68C140.19 61.68 140.598 61.808 140.913 62.064C141.233 62.3147 141.393 62.712 141.393 63.256V66ZM140.497 64.416V64.056H139.489C138.844 64.056 138.521 64.2587 138.521 64.664C138.521 64.872 138.601 65.032 138.761 65.144C138.921 65.2507 139.142 65.304 139.425 65.304C139.713 65.304 139.964 65.224 140.177 65.064C140.39 64.904 140.497 64.688 140.497 64.416ZM144.92 61.68C145.491 61.68 145.979 61.8773 146.384 62.272C146.79 62.6667 146.992 63.192 146.992 63.848C146.992 64.504 146.79 65.0373 146.384 65.448C145.984 65.8587 145.515 66.064 144.976 66.064C144.443 66.064 143.963 65.8293 143.536 65.36V67.552H142.64V61.744H143.536V62.488C143.888 61.9493 144.35 61.68 144.92 61.68ZM143.52 63.88C143.52 64.2853 143.643 64.6187 143.888 64.88C144.134 65.136 144.432 65.264 144.784 65.264C145.136 65.264 145.443 65.136 145.704 64.88C145.966 64.624 146.096 64.2933 146.096 63.888C146.096 63.4773 145.968 63.1387 145.712 62.872C145.456 62.6 145.15 62.464 144.792 62.464C144.435 62.464 144.134 62.6 143.888 62.872C143.643 63.1387 143.52 63.4747 143.52 63.88ZM148.911 63.696V66H148.015V60.072H148.911V62.52C149.039 62.2587 149.231 62.0533 149.487 61.904C149.749 61.7547 150.029 61.68 150.327 61.68C150.807 61.68 151.194 61.8267 151.487 62.12C151.786 62.4133 151.935 62.8373 151.935 63.392V66H151.039V63.664C151.039 62.88 150.714 62.488 150.063 62.488C149.754 62.488 149.485 62.592 149.255 62.8C149.026 63.0027 148.911 63.3013 148.911 63.696Z" fill="#626262"/>
</svg>
